<?xml version="1.0" encoding="UTF-8" standalone="no"?>
<!DOCTYPE svg PUBLIC "-//W3C//DTD SVG 1.1//EN" "http://www.w3.org/Graphics/SVG/1.1/DTD/svg11.dtd">
<svg xmlns="http://www.w3.org/2000/svg" version="1.1" viewBox="0 0 64 64">
<g stroke-width="2.00" fill="none" stroke-linecap="butt">
<path stroke="#414b71" vector-effect="non-scaling-stroke" d="
  M 51.21 14.25
  Q 49.72 13.93 48.57 12.93
  Q 44.59 9.45 39.75 8.07
  Q 38.83 7.81 39.43 8.55
  Q 43.45 13.52 44.95 19.71
  A 0.99 0.91 5.7 0 0 45.53 20.36
  L 54.70 24.14
  Q 56.58 24.91 55.70 23.08
  L 51.79 15.00"
/>
<path stroke="#414b71" vector-effect="non-scaling-stroke" d="
  M 12.79 49.75
  Q 14.46 50.14 15.19 50.81
  Q 19.30 54.63 24.70 56.06
  Q 25.19 56.19 24.87 55.81
  Q 20.97 51.10 19.10 44.73
  A 1.74 1.71 3.5 0 0 18.10 43.62
  L 9.56 39.98
  Q 7.74 39.20 8.43 41.05
  Q 9.49 43.86 11.19 46.31
  Q 12.14 47.69 12.00 48.96"
/>
<path stroke="#414b71" vector-effect="non-scaling-stroke" d="
  M 38.43 19.14
  Q 39.97 19.29 42.39 19.62
  A 0.42 0.42 -4.1 0 0 42.85 19.09
  Q 41.27 13.37 37.16 9.35
  Q 32.01 4.31 26.69 9.19
  Q 22.65 12.90 21.17 19.20
  A 0.34 0.34 -88.2 0 0 21.55 19.61
  Q 29.96 18.29 38.43 19.14"
/>
<path stroke="#414b71" vector-effect="non-scaling-stroke" d="
  M 20.37 15.59
  Q 22.01 11.49 24.21 9.01
  Q 25.59 7.45 23.64 8.20
  Q 12.71 12.39 8.31 23.06
  Q 7.52 24.99 9.44 24.19
  L 18.34 20.46
  A 1.08 0.89 -6.9 0 0 18.94 19.83
  Q 19.54 17.67 20.37 15.59"
/>
<path stroke="#32406e" vector-effect="non-scaling-stroke" d="
  M 43.16 21.81
  Q 32.15 19.54 21.72 21.60
  Q 20.83 21.78 20.45 22.22
  Q 19.87 22.87 20.13 23.74
  A 0.73 0.62 -6.7 0 0 20.81 24.19
  Q 31.31 24.29 41.81 24.25
  Q 41.89 24.25 42.70 24.30
  Q 44.71 24.41 43.77 22.30
  A 0.86 0.86 -6.2 0 0 43.16 21.81"
/>
<path stroke="#414b71" vector-effect="non-scaling-stroke" d="
  M 17.98 23.41
  Q 18.95 22.26 17.51 22.75
  L 14.86 23.64
  Q 14.52 23.75 14.86 23.84
  Q 17.13 24.41 17.98 23.41"
/>
<path stroke="#414b71" vector-effect="non-scaling-stroke" d="
  M 48.70 24.06
  Q 50.17 24.02 48.76 23.60
  Q 47.84 23.32 46.63 23.01
  Q 45.28 22.67 45.89 23.47
  A 1.22 1.04 -10.3 0 0 46.63 23.90
  Q 47.65 24.09 48.70 24.06"
/>
<path stroke="#32406e" vector-effect="non-scaling-stroke" d="
  M 30.21 39.25
  Q 26.79 40.27 21.88 39.55
  A 1.68 1.67 -83.0 0 0 19.97 41.05
  Q 19.85 42.28 21.62 42.47
  Q 22.76 42.59 22.86 42.60
  Q 32.71 44.20 42.51 42.35
  A 1.69 1.51 13.9 0 0 43.36 41.90
  Q 45.37 39.83 42.00 39.88
  Q 36.86 39.97 31.75 39.46"
/>
<path stroke="#7e7c7c" vector-effect="non-scaling-stroke" d="
  M 31.75 39.46
  Q 32.05 38.00 34.25 38.00
  Q 47.75 38.00 61.33 38.00
  A 0.92 0.92 45.0 0 0 62.25 37.08
  L 62.25 26.66
  A 0.66 0.66 -87.7 0 0 61.59 26.00
  L 2.62 26.00
  A 0.81 0.80 -0.0 0 0 1.81 26.80
  L 1.75 36.83
  A 1.13 1.11 0.3 0 0 2.87 37.94
  Q 15.28 38.05 28.25 38.00
  Q 30.05 37.99 30.21 39.25"
/>
<path stroke="#afbbea" vector-effect="non-scaling-stroke" d="
  M 31.75 39.46
  Q 30.88 39.72 30.21 39.25"
/>
<path stroke="#414b71" vector-effect="non-scaling-stroke" d="
  M 16.46 40.75
  Q 19.66 41.72 17.26 40.17
  Q 17.00 40.00 16.70 39.97
  Q 12.40 39.52 16.46 40.75"
/>
<path stroke="#414b71" vector-effect="non-scaling-stroke" d="
  M 45.99 40.58
  Q 45.55 41.56 46.57 41.23
  Q 50.72 39.86 48.32 39.96
  Q 48.22 39.97 47.19 39.89
  Q 46.32 39.83 45.99 40.58"
/>
<path stroke="#414b71" vector-effect="non-scaling-stroke" d="
  M 55.32 41.49
  Q 56.27 39.37 54.10 40.23
  L 45.53 43.63
  A 1.01 0.95 -4.8 0 0 44.94 44.29
  Q 43.33 50.61 39.37 55.79
  Q 39.07 56.19 39.54 56.04
  Q 50.39 52.49 55.32 41.49"
/>
<path stroke="#414b71" vector-effect="non-scaling-stroke" d="
  M 38.96 53.17
  Q 41.54 49.55 42.93 44.63
  A 0.35 0.35 -87.8 0 0 42.53 44.19
  Q 32.23 46.25 21.54 44.19
  A 0.33 0.33 -1.1 0 0 21.15 44.59
  Q 22.17 48.83 24.46 52.13
  Q 27.16 56.02 30.65 56.96
  Q 35.35 58.23 38.96 53.17"
/>
<path stroke="#7e7c7c" vector-effect="non-scaling-stroke" d="
  M 20.56 30.49
  Q 20.30 32.00 19.84 30.54
  Q 18.20 25.31 16.65 30.62
  Q 16.24 32.03 15.97 30.58
  Q 15.87 30.03 15.77 29.40
  Q 15.66 28.69 15.36 28.31
  Q 14.72 27.52 14.07 28.12
  A 1.07 0.80 67.9 0 0 13.84 29.00
  Q 14.31 31.58 14.79 34.15
  Q 15.08 35.66 15.81 36.00
  Q 16.98 36.54 17.76 33.39
  Q 18.18 31.71 18.67 33.37
  Q 19.47 36.06 20.48 36.03
  Q 21.32 36.00 21.70 34.31
  Q 22.30 31.67 22.68 29.00
  A 1.01 0.87 -67.3 0 0 22.40 28.14
  Q 21.29 27.14 20.87 29.03
  Q 20.63 30.10 20.56 30.49"
/>
<path stroke="#7e7c7c" vector-effect="non-scaling-stroke" d="
  M 33.78 30.91
  Q 33.24 30.39 33.19 29.31
  Q 33.10 27.59 31.78 27.91
  A 0.95 0.75 -2.6 0 0 31.09 28.51
  L 30.44 31.27
  A 0.28 0.14 -80.3 0 1 30.28 31.49
  L 30.12 31.51
  A 0.38 0.27 87.5 0 1 29.82 31.12
  Q 29.79 29.63 29.07 28.36
  A 0.97 0.76 71.9 0 0 28.33 27.86
  Q 27.50 27.87 27.69 29.06
  Q 28.30 32.96 28.76 34.87
  Q 28.96 35.70 29.47 36.03
  Q 30.45 36.65 31.00 35.04
  Q 31.39 33.90 31.88 32.81
  Q 32.08 32.35 32.33 32.65
  Q 32.43 32.77 32.45 33.00
  Q 32.54 34.05 32.96 34.99
  Q 33.32 35.83 33.98 36.08
  Q 35.12 36.53 35.47 34.80
  Q 36.01 32.20 36.31 29.56
  Q 36.48 28.13 35.55 27.87
  A 0.57 0.56 15.4 0 0 34.85 28.26
  L 34.23 30.69
  A 0.33 0.25 -63.9 0 1 33.78 30.91"
/>
<path stroke="#7e7c7c" vector-effect="non-scaling-stroke" d="
  M 47.53 30.70
  Q 45.46 24.65 44.12 30.42
  Q 43.82 31.71 43.52 30.42
  Q 42.78 27.22 41.60 28.15
  A 0.96 0.75 69.9 0 0 41.33 28.99
  Q 41.83 31.85 42.41 34.69
  Q 42.59 35.57 43.10 35.96
  Q 44.26 36.84 44.75 34.80
  Q 45.82 30.39 46.64 34.61
  Q 46.79 35.38 47.14 35.78
  Q 47.92 36.68 48.60 35.88
  Q 48.96 35.46 49.15 34.51
  Q 49.70 31.76 50.17 28.99
  A 1.03 0.85 -66.7 0 0 49.92 28.13
  Q 48.88 27.14 48.41 29.04
  Q 48.20 29.90 47.88 30.73
  Q 47.70 31.19 47.53 30.70"
/>
</g>
<path fill="#000000" d="
  M 51.21 14.25
  Q 49.72 13.93 48.57 12.93
  Q 44.59 9.45 39.75 8.07
  Q 38.83 7.81 39.43 8.55
  Q 43.45 13.52 44.95 19.71
  A 0.99 0.91 5.7 0 0 45.53 20.36
  L 54.70 24.14
  Q 56.58 24.91 55.70 23.08
  L 51.79 15.00
  Q 53.03 15.01 53.78 15.96
  Q 56.58 19.50 57.60 22.74
  Q 58.24 24.77 60.33 24.38
  Q 63.19 23.84 64.00 25.81
  L 64.00 38.06
  Q 63.00 40.43 60.10 39.71
  Q 58.32 39.27 57.67 40.99
  Q 54.74 48.72 48.63 53.43
  Q 42.69 58.00 34.94 58.93
  Q 23.26 60.34 13.59 51.90
  Q 12.62 51.05 12.79 49.75
  Q 14.46 50.14 15.19 50.81
  Q 19.30 54.63 24.70 56.06
  Q 25.19 56.19 24.87 55.81
  Q 20.97 51.10 19.10 44.73
  A 1.74 1.71 3.5 0 0 18.10 43.62
  L 9.56 39.98
  Q 7.74 39.20 8.43 41.05
  Q 9.49 43.86 11.19 46.31
  Q 12.14 47.69 12.00 48.96
  Q 10.94 48.91 9.69 47.31
  Q 7.54 44.57 6.56 41.45
  Q 5.85 39.18 3.54 39.74
  Q 0.98 40.36 0.00 38.19
  L 0.00 25.69
  Q 1.50 23.43 3.95 24.09
  Q 5.69 24.56 6.39 22.90
  Q 11.40 11.03 22.00 6.82
  Q 28.79 4.12 35.72 5.16
  Q 42.67 6.19 48.94 10.81
  Q 51.03 12.35 51.21 14.25
  Z
  M 38.43 19.14
  Q 39.97 19.29 42.39 19.62
  A 0.42 0.42 -4.1 0 0 42.85 19.09
  Q 41.27 13.37 37.16 9.35
  Q 32.01 4.31 26.69 9.19
  Q 22.65 12.90 21.17 19.20
  A 0.34 0.34 -88.2 0 0 21.55 19.61
  Q 29.96 18.29 38.43 19.14
  Z
  M 20.37 15.59
  Q 22.01 11.49 24.21 9.01
  Q 25.59 7.45 23.64 8.20
  Q 12.71 12.39 8.31 23.06
  Q 7.52 24.99 9.44 24.19
  L 18.34 20.46
  A 1.08 0.89 -6.9 0 0 18.94 19.83
  Q 19.54 17.67 20.37 15.59
  Z
  M 43.16 21.81
  Q 32.15 19.54 21.72 21.60
  Q 20.83 21.78 20.45 22.22
  Q 19.87 22.87 20.13 23.74
  A 0.73 0.62 -6.7 0 0 20.81 24.19
  Q 31.31 24.29 41.81 24.25
  Q 41.89 24.25 42.70 24.30
  Q 44.71 24.41 43.77 22.30
  A 0.86 0.86 -6.2 0 0 43.16 21.81
  Z
  M 17.98 23.41
  Q 18.95 22.26 17.51 22.75
  L 14.86 23.64
  Q 14.52 23.75 14.86 23.84
  Q 17.13 24.41 17.98 23.41
  Z
  M 48.70 24.06
  Q 50.17 24.02 48.76 23.60
  Q 47.84 23.32 46.63 23.01
  Q 45.28 22.67 45.89 23.47
  A 1.22 1.04 -10.3 0 0 46.63 23.90
  Q 47.65 24.09 48.70 24.06
  Z
  M 30.21 39.25
  Q 26.79 40.27 21.88 39.55
  A 1.68 1.67 -83.0 0 0 19.97 41.05
  Q 19.85 42.28 21.62 42.47
  Q 22.76 42.59 22.86 42.60
  Q 32.71 44.20 42.51 42.35
  A 1.69 1.51 13.9 0 0 43.36 41.90
  Q 45.37 39.83 42.00 39.88
  Q 36.86 39.97 31.75 39.46
  Q 32.05 38.00 34.25 38.00
  Q 47.75 38.00 61.33 38.00
  A 0.92 0.92 45.0 0 0 62.25 37.08
  L 62.25 26.66
  A 0.66 0.66 -87.7 0 0 61.59 26.00
  L 2.62 26.00
  A 0.81 0.80 -0.0 0 0 1.81 26.80
  L 1.75 36.83
  A 1.13 1.11 0.3 0 0 2.87 37.94
  Q 15.28 38.05 28.25 38.00
  Q 30.05 37.99 30.21 39.25
  Z
  M 16.46 40.75
  Q 19.66 41.72 17.26 40.17
  Q 17.00 40.00 16.70 39.97
  Q 12.40 39.52 16.46 40.75
  Z
  M 45.99 40.58
  Q 45.55 41.56 46.57 41.23
  Q 50.72 39.86 48.32 39.96
  Q 48.22 39.97 47.19 39.89
  Q 46.32 39.83 45.99 40.58
  Z
  M 55.32 41.49
  Q 56.27 39.37 54.10 40.23
  L 45.53 43.63
  A 1.01 0.95 -4.8 0 0 44.94 44.29
  Q 43.33 50.61 39.37 55.79
  Q 39.07 56.19 39.54 56.04
  Q 50.39 52.49 55.32 41.49
  Z
  M 38.96 53.17
  Q 41.54 49.55 42.93 44.63
  A 0.35 0.35 -87.8 0 0 42.53 44.19
  Q 32.23 46.25 21.54 44.19
  A 0.33 0.33 -1.1 0 0 21.15 44.59
  Q 22.17 48.83 24.46 52.13
  Q 27.16 56.02 30.65 56.96
  Q 35.35 58.23 38.96 53.17
  Z"
/>
<path fill="#8296e1" d="
  M 38.43 19.14
  Q 29.96 18.29 21.55 19.61
  A 0.34 0.34 -88.2 0 1 21.17 19.20
  Q 22.65 12.90 26.69 9.19
  Q 32.01 4.31 37.16 9.35
  Q 41.27 13.37 42.85 19.09
  A 0.42 0.42 -4.1 0 1 42.39 19.62
  Q 39.97 19.29 38.43 19.14
  Z"
/>
<path fill="#8296e1" d="
  M 20.37 15.59
  Q 19.54 17.67 18.94 19.83
  A 1.08 0.89 -6.9 0 1 18.34 20.46
  L 9.44 24.19
  Q 7.52 24.99 8.31 23.06
  Q 12.71 12.39 23.64 8.20
  Q 25.59 7.45 24.21 9.01
  Q 22.01 11.49 20.37 15.59
  Z"
/>
<path fill="#8296e1" d="
  M 51.21 14.25
  L 51.79 15.00
  L 55.70 23.08
  Q 56.58 24.91 54.70 24.14
  L 45.53 20.36
  A 0.99 0.91 5.7 0 1 44.95 19.71
  Q 43.45 13.52 39.43 8.55
  Q 38.83 7.81 39.75 8.07
  Q 44.59 9.45 48.57 12.93
  Q 49.72 13.93 51.21 14.25
  Z"
/>
<path fill="#637fdc" d="
  M 43.16 21.81
  A 0.86 0.86 -6.2 0 1 43.77 22.30
  Q 44.71 24.41 42.70 24.30
  Q 41.89 24.25 41.81 24.25
  Q 31.31 24.29 20.81 24.19
  A 0.73 0.62 -6.7 0 1 20.13 23.74
  Q 19.87 22.87 20.45 22.22
  Q 20.83 21.78 21.72 21.60
  Q 32.15 19.54 43.16 21.81
  Z"
/>
<path fill="#8296e1" d="
  M 17.98 23.41
  Q 17.13 24.41 14.86 23.84
  Q 14.52 23.75 14.86 23.64
  L 17.51 22.75
  Q 18.95 22.26 17.98 23.41
  Z"
/>
<path fill="#8296e1" d="
  M 48.70 24.06
  Q 47.65 24.09 46.63 23.90
  A 1.22 1.04 -10.3 0 1 45.89 23.47
  Q 45.28 22.67 46.63 23.01
  Q 47.84 23.32 48.76 23.60
  Q 50.17 24.02 48.70 24.06
  Z"
/>
<path fill="#fbf7f7" d="
  M 31.75 39.46
  Q 30.88 39.72 30.21 39.25
  Q 30.05 37.99 28.25 38.00
  Q 15.28 38.05 2.87 37.94
  A 1.13 1.11 0.3 0 1 1.75 36.83
  L 1.81 26.80
  A 0.81 0.80 -0.0 0 1 2.62 26.00
  L 61.59 26.00
  A 0.66 0.66 -86.2 0 1 62.25 26.66
  L 62.25 37.08
  A 0.92 0.92 45.0 0 1 61.33 38.00
  Q 47.75 38.00 34.25 38.00
  Q 32.05 38.00 31.75 39.46
  Z
  M 20.56 30.49
  Q 20.30 32.00 19.84 30.54
  Q 18.20 25.31 16.65 30.62
  Q 16.24 32.03 15.97 30.58
  Q 15.87 30.03 15.77 29.40
  Q 15.66 28.69 15.36 28.31
  Q 14.72 27.52 14.07 28.12
  A 1.07 0.80 67.9 0 0 13.84 29.00
  Q 14.31 31.58 14.79 34.15
  Q 15.08 35.66 15.81 36.00
  Q 16.98 36.54 17.76 33.39
  Q 18.18 31.71 18.67 33.37
  Q 19.47 36.06 20.48 36.03
  Q 21.32 36.00 21.70 34.31
  Q 22.30 31.67 22.68 29.00
  A 1.01 0.87 -67.3 0 0 22.40 28.14
  Q 21.29 27.14 20.87 29.03
  Q 20.63 30.10 20.56 30.49
  Z
  M 33.78 30.91
  Q 33.24 30.39 33.19 29.31
  Q 33.10 27.59 31.78 27.91
  A 0.95 0.75 -2.6 0 0 31.09 28.51
  L 30.44 31.27
  A 0.28 0.14 -80.3 0 1 30.28 31.49
  L 30.12 31.51
  A 0.38 0.27 87.5 0 1 29.82 31.12
  Q 29.79 29.63 29.07 28.36
  A 0.97 0.76 71.9 0 0 28.33 27.86
  Q 27.50 27.87 27.69 29.06
  Q 28.30 32.96 28.76 34.87
  Q 28.96 35.70 29.47 36.03
  Q 30.45 36.65 31.00 35.04
  Q 31.39 33.90 31.88 32.81
  Q 32.08 32.35 32.33 32.65
  Q 32.43 32.77 32.45 33.00
  Q 32.54 34.05 32.96 34.99
  Q 33.32 35.83 33.98 36.08
  Q 35.12 36.53 35.47 34.80
  Q 36.01 32.20 36.31 29.56
  Q 36.48 28.13 35.55 27.87
  A 0.57 0.56 15.4 0 0 34.85 28.26
  L 34.23 30.69
  A 0.33 0.25 -63.9 0 1 33.78 30.91
  Z
  M 47.53 30.70
  Q 45.46 24.65 44.12 30.42
  Q 43.82 31.71 43.52 30.42
  Q 42.78 27.22 41.60 28.15
  A 0.96 0.75 69.9 0 0 41.33 28.99
  Q 41.83 31.85 42.41 34.69
  Q 42.59 35.57 43.10 35.96
  Q 44.26 36.84 44.75 34.80
  Q 45.82 30.39 46.64 34.61
  Q 46.79 35.38 47.14 35.78
  Q 47.92 36.68 48.60 35.88
  Q 48.96 35.46 49.15 34.51
  Q 49.70 31.76 50.17 28.99
  A 1.03 0.85 -66.7 0 0 49.92 28.13
  Q 48.88 27.14 48.41 29.04
  Q 48.20 29.90 47.88 30.73
  Q 47.70 31.19 47.53 30.70
  Z"
/>
<path fill="#000000" d="
  M 20.56 30.49
  Q 20.63 30.10 20.87 29.03
  Q 21.29 27.14 22.40 28.14
  A 1.01 0.87 -67.3 0 1 22.68 29.00
  Q 22.30 31.67 21.70 34.31
  Q 21.32 36.00 20.48 36.03
  Q 19.47 36.06 18.67 33.37
  Q 18.18 31.71 17.76 33.39
  Q 16.98 36.54 15.81 36.00
  Q 15.08 35.66 14.79 34.15
  Q 14.31 31.58 13.84 29.00
  A 1.07 0.80 67.9 0 1 14.07 28.12
  Q 14.72 27.52 15.36 28.31
  Q 15.66 28.69 15.77 29.40
  Q 15.87 30.03 15.97 30.58
  Q 16.24 32.03 16.65 30.62
  Q 18.20 25.31 19.84 30.54
  Q 20.30 32.00 20.56 30.49
  Z"
/>
<path fill="#000000" d="
  M 34.23 30.69
  L 34.85 28.26
  A 0.57 0.56 15.4 0 1 35.55 27.87
  Q 36.48 28.13 36.31 29.56
  Q 36.01 32.20 35.47 34.80
  Q 35.12 36.53 33.98 36.08
  Q 33.32 35.83 32.96 34.99
  Q 32.54 34.05 32.45 33.00
  Q 32.43 32.77 32.33 32.65
  Q 32.08 32.35 31.88 32.81
  Q 31.39 33.90 31.00 35.04
  Q 30.45 36.65 29.47 36.03
  Q 28.96 35.70 28.76 34.87
  Q 28.30 32.96 27.69 29.06
  Q 27.50 27.87 28.33 27.86
  A 0.97 0.76 71.9 0 1 29.07 28.36
  Q 29.79 29.63 29.82 31.12
  A 0.38 0.27 87.5 0 0 30.12 31.51
  L 30.28 31.49
  A 0.28 0.14 -80.3 0 0 30.44 31.27
  L 31.09 28.51
  A 0.95 0.75 -2.6 0 1 31.78 27.91
  Q 33.10 27.59 33.19 29.31
  Q 33.24 30.39 33.78 30.91
  A 0.33 0.25 -63.9 0 0 34.23 30.69
  Z"
/>
<path fill="#000000" d="
  M 47.88 30.73
  Q 48.20 29.90 48.41 29.04
  Q 48.88 27.14 49.92 28.13
  A 1.03 0.85 -66.7 0 1 50.17 28.99
  Q 49.70 31.76 49.15 34.51
  Q 48.96 35.46 48.60 35.88
  Q 47.92 36.68 47.14 35.78
  Q 46.79 35.38 46.64 34.61
  Q 45.82 30.39 44.75 34.80
  Q 44.26 36.84 43.10 35.96
  Q 42.59 35.57 42.41 34.69
  Q 41.83 31.85 41.33 28.99
  A 0.96 0.75 69.9 0 1 41.60 28.15
  Q 42.78 27.22 43.52 30.42
  Q 43.82 31.71 44.12 30.42
  Q 45.46 24.65 47.53 30.70
  Q 47.70 31.19 47.88 30.73
  Z"
/>
<path fill="#637fdc" d="
  M 30.21 39.25
  Q 30.88 39.72 31.75 39.46
  Q 36.86 39.97 42.00 39.88
  Q 45.37 39.83 43.36 41.90
  A 1.69 1.51 13.9 0 1 42.51 42.35
  Q 32.71 44.20 22.86 42.60
  Q 22.76 42.59 21.62 42.47
  Q 19.85 42.28 19.97 41.05
  A 1.68 1.67 -83.0 0 1 21.88 39.55
  Q 26.79 40.27 30.21 39.25
  Z"
/>
<path fill="#8296e1" d="
  M 12.79 49.75
  Q 12.50 49.25 12.00 48.96
  Q 12.14 47.69 11.19 46.31
  Q 9.49 43.86 8.43 41.05
  Q 7.74 39.20 9.56 39.98
  L 18.10 43.62
  A 1.74 1.71 3.5 0 1 19.10 44.73
  Q 20.97 51.10 24.87 55.81
  Q 25.19 56.19 24.70 56.06
  Q 19.30 54.63 15.19 50.81
  Q 14.46 50.14 12.79 49.75
  Z"
/>
<path fill="#8296e1" d="
  M 16.46 40.75
  Q 12.40 39.52 16.70 39.97
  Q 17.00 40.00 17.26 40.17
  Q 19.66 41.72 16.46 40.75
  Z"
/>
<path fill="#8296e1" d="
  M 45.99 40.58
  Q 46.32 39.83 47.19 39.89
  Q 48.22 39.97 48.32 39.96
  Q 50.72 39.86 46.57 41.23
  Q 45.55 41.56 45.99 40.58
  Z"
/>
<path fill="#8296e1" d="
  M 55.32 41.49
  Q 50.39 52.49 39.54 56.04
  Q 39.07 56.19 39.37 55.79
  Q 43.33 50.61 44.94 44.29
  A 1.01 0.95 -4.8 0 1 45.53 43.63
  L 54.10 40.23
  Q 56.27 39.37 55.32 41.49
  Z"
/>
<path fill="#8296e1" d="
  M 38.96 53.17
  Q 35.35 58.23 30.65 56.96
  Q 27.16 56.02 24.46 52.13
  Q 22.17 48.83 21.15 44.59
  A 0.33 0.33 -1.1 0 1 21.54 44.19
  Q 32.23 46.25 42.53 44.19
  A 0.35 0.35 -87.8 0 1 42.93 44.63
  Q 41.54 49.55 38.96 53.17
  Z"
/>
</svg>
