<?xml version="1.0" encoding="UTF-8" standalone="no"?>
<!DOCTYPE svg PUBLIC "-//W3C//DTD SVG 1.1//EN" "http://www.w3.org/Graphics/SVG/1.1/DTD/svg11.dtd">
<svg xmlns="http://www.w3.org/2000/svg" version="1.1" viewBox="0 0 230 225">
<path fill="#ffffff" d="
  M 230.00 113.56
  L 230.00 122.06
  Q 228.45 152.53 212.94 177.69
  Q 192.68 210.52 156.19 225.00
  L 145.19 225.00
  Q 143.67 223.02 143.68 220.50
  Q 143.75 204.00 143.77 187.50
  Q 143.77 177.33 136.74 168.71
  Q 136.25 168.11 137.02 168.05
  Q 146.78 167.26 155.92 164.02
  Q 166.15 160.40 172.58 154.72
  Q 180.75 147.51 184.59 136.65
  Q 188.02 126.95 188.50 114.50
  Q 189.26 94.85 177.14 80.81
  A 0.88 0.87 -56.7 0 1 176.97 79.97
  Q 181.11 67.14 177.12 54.35
  Q 176.16 51.28 176.02 51.04
  Q 174.97 49.27 172.24 49.71
  Q 158.06 52.00 146.44 60.44
  Q 144.09 62.14 141.72 61.38
  Q 140.16 60.88 140.11 60.87
  Q 113.67 54.77 86.83 61.85
  A 0.72 0.72 55.5 0 1 86.24 61.74
  Q 77.02 55.34 66.43 51.57
  Q 61.25 49.72 55.56 50.01
  A 0.81 0.80 9.2 0 0 54.86 50.51
  Q 48.86 65.30 53.60 80.03
  A 0.90 0.88 -33.7 0 1 53.42 80.88
  Q 42.21 93.97 41.99 110.79
  Q 41.93 115.81 42.67 122.70
  Q 43.37 129.17 45.06 134.44
  Q 52.58 157.80 76.72 164.84
  Q 84.93 167.23 93.54 168.07
  Q 94.25 168.14 93.77 168.67
  Q 88.26 174.80 87.22 182.50
  A 1.77 1.77 82.5 0 1 86.16 183.88
  Q 65.10 192.62 53.35 173.92
  Q 50.73 169.75 45.81 165.94
  Q 39.56 161.08 32.00 162.94
  Q 29.07 163.66 31.05 165.93
  Q 32.83 167.96 35.12 169.35
  Q 37.75 170.94 39.71 173.29
  Q 43.82 178.20 46.64 183.88
  Q 50.07 190.76 51.15 192.13
  Q 57.59 200.28 68.99 200.99
  Q 77.35 201.51 85.56 199.81
  A 0.56 0.56 -7.3 0 1 86.22 200.32
  Q 86.82 212.13 86.25 223.25
  Q 86.19 224.45 84.69 225.00
  L 73.94 225.00
  Q 37.04 210.28 16.81 177.44
  Q 1.45 152.49 0.00 121.69
  L 0.00 113.19
  Q 2.23 70.34 29.94 40.19
  Q 55.11 12.79 91.25 5.00
  Q 109.11 1.15 127.98 3.39
  Q 159.11 7.07 183.66 25.28
  Q 191.59 31.17 198.55 38.58
  Q 227.64 69.56 230.00 113.56
  Z"
/>
</svg>
