<?xml version="1.0" encoding="UTF-8" standalone="no"?>
<!DOCTYPE svg PUBLIC "-//W3C//DTD SVG 1.1//EN" "http://www.w3.org/Graphics/SVG/1.1/DTD/svg11.dtd">
<svg xmlns="http://www.w3.org/2000/svg" version="1.1" viewBox="0 0 64 64">
<g stroke-width="2.00" fill="none" stroke-linecap="butt">
<path stroke="#79b6d6" vector-effect="non-scaling-stroke" d="
  M 23.9600 17.6547
  A 4.22 3.87 0.2 0 0 19.7535 13.7700
  A 4.22 3.87 0.2 0 0 15.5200 17.6253
  A 4.22 3.87 0.2 0 0 19.7265 21.5100
  A 4.22 3.87 0.2 0 0 23.9600 17.6547"
/>
<path stroke="#79b6d6" vector-effect="non-scaling-stroke" d="
  M 35.44 27.42
  Q 34.93 27.28 35.44 26.44
  Q 35.78 25.87 35.46 25.23
  A 0.90 0.78 -11.7 0 0 34.69 24.80
  L 28.26 24.75
  A 0.50 0.50 89.4 0 0 27.76 25.26
  L 27.92 47.07
  A 0.56 0.51 89.4 0 0 28.43 47.62
  L 34.82 47.62
  A 0.57 0.51 -89.4 0 0 35.33 47.06
  L 35.50 33.98
  Q 35.53 31.81 37.42 30.94
  Q 40.52 29.52 42.22 31.45
  Q 43.24 32.61 43.37 35.34
  Q 43.65 40.91 43.48 47.08
  A 0.64 0.63 -89.1 0 0 44.11 47.74
  L 50.44 47.70
  A 0.54 0.52 -88.9 0 0 50.96 47.18
  Q 51.29 40.32 50.77 33.49
  Q 50.47 29.62 49.19 27.82
  Q 47.32 25.20 43.74 24.57
  Q 39.17 23.77 36.26 27.06
  A 0.97 0.59 -54.9 0 1 35.44 27.42"
/>
<path stroke="#79b6d6" vector-effect="non-scaling-stroke" d="
  M 23.50 25.06
  A 0.31 0.31 0.0 0 0 23.19 24.75
  L 16.31 24.75
  A 0.31 0.31 0.0 0 0 16.00 25.06
  L 16.00 47.44
  A 0.31 0.31 0.0 0 0 16.31 47.75
  L 23.19 47.75
  A 0.31 0.31 0.0 0 0 23.50 47.44
  L 23.50 25.06"
/>
</g>
<path fill="#007ab9" d="
  M 31.31 0.00
  L 32.81 0.00
  Q 52.16 1.84 60.11 17.22
  Q 64.14 25.00 63.85 33.45
  Q 63.53 42.52 58.44 49.94
  Q 49.38 63.13 32.19 64.00
  L 31.44 64.00
  Q 11.62 62.69 3.31 45.94
  Q -1.03 37.17 0.40 27.66
  Q 1.76 18.62 7.64 11.53
  Q 16.26 1.12 31.31 0.00
  Z
  M 23.9600 17.6547
  A 4.22 3.87 0.2 0 0 19.7535 13.7700
  A 4.22 3.87 0.2 0 0 15.5200 17.6253
  A 4.22 3.87 0.2 0 0 19.7265 21.5100
  A 4.22 3.87 0.2 0 0 23.9600 17.6547
  Z
  M 35.44 27.42
  Q 34.93 27.28 35.44 26.44
  Q 35.78 25.87 35.46 25.23
  A 0.90 0.78 -11.7 0 0 34.69 24.80
  L 28.26 24.75
  A 0.50 0.50 89.4 0 0 27.76 25.26
  L 27.92 47.07
  A 0.56 0.51 89.4 0 0 28.43 47.62
  L 34.82 47.62
  A 0.57 0.51 -89.4 0 0 35.33 47.06
  L 35.50 33.98
  Q 35.53 31.81 37.42 30.94
  Q 40.52 29.52 42.22 31.45
  Q 43.24 32.61 43.37 35.34
  Q 43.65 40.91 43.48 47.08
  A 0.64 0.63 -89.1 0 0 44.11 47.74
  L 50.44 47.70
  A 0.54 0.52 -88.9 0 0 50.96 47.18
  Q 51.29 40.32 50.77 33.49
  Q 50.47 29.62 49.19 27.82
  Q 47.32 25.20 43.74 24.57
  Q 39.17 23.77 36.26 27.06
  A 0.97 0.59 -54.9 0 1 35.44 27.42
  Z
  M 23.50 25.06
  A 0.31 0.31 0.0 0 0 23.19 24.75
  L 16.31 24.75
  A 0.31 0.31 0.0 0 0 16.00 25.06
  L 16.00 47.44
  A 0.31 0.31 0.0 0 0 16.31 47.75
  L 23.19 47.75
  A 0.31 0.31 0.0 0 0 23.50 47.44
  L 23.50 25.06
  Z"
/>
<ellipse fill="#f1f2f2" cx="0.00" cy="0.00" transform="translate(19.74,17.64) rotate(0.2)" rx="4.22" ry="3.87"/>
<path fill="#f1f2f2" d="
  M 36.26 27.06
  Q 39.17 23.77 43.74 24.57
  Q 47.32 25.20 49.19 27.82
  Q 50.47 29.62 50.77 33.49
  Q 51.29 40.32 50.96 47.18
  A 0.54 0.52 -88.9 0 1 50.44 47.70
  L 44.11 47.74
  A 0.64 0.63 -89.1 0 1 43.48 47.08
  Q 43.65 40.91 43.37 35.34
  Q 43.24 32.61 42.22 31.45
  Q 40.52 29.52 37.42 30.94
  Q 35.53 31.81 35.50 33.98
  L 35.33 47.06
  A 0.57 0.51 -89.4 0 1 34.82 47.62
  L 28.43 47.62
  A 0.56 0.51 89.4 0 1 27.92 47.07
  L 27.76 25.26
  A 0.50 0.50 89.4 0 1 28.26 24.75
  L 34.69 24.80
  A 0.90 0.78 -11.7 0 1 35.46 25.23
  Q 35.78 25.87 35.44 26.44
  Q 34.93 27.28 35.44 27.42
  A 0.97 0.59 -54.9 0 0 36.26 27.06
  Z"
/>
<rect fill="#f1f2f2" x="16.00" y="24.75" width="7.50" height="23.00" rx="0.31"/>
</svg>
