<?xml version="1.0" encoding="UTF-8" standalone="no"?>
<!DOCTYPE svg PUBLIC "-//W3C//DTD SVG 1.1//EN" "http://www.w3.org/Graphics/SVG/1.1/DTD/svg11.dtd">
<svg xmlns="http://www.w3.org/2000/svg" version="1.1" viewBox="0 0 64 64">
<g stroke-width="2.00" fill="none" stroke-linecap="butt">
<path stroke="#94d38d" vector-effect="non-scaling-stroke" d="
  M 39.06 13.44
  Q 33.51 11.23 27.91 12.47
  Q 22.80 13.61 18.49 17.57
  Q 8.88 26.43 14.08 40.54
  A 1.92 1.70 43.7 0 1 14.16 41.49
  L 12.30 50.61
  A 1.01 0.99 89.5 0 0 13.49 51.80
  L 21.91 49.94
  A 3.86 3.64 -40.4 0 1 23.89 50.04
  Q 32.08 52.82 38.92 50.06
  Q 48.28 46.29 50.81 37.82
  Q 52.95 30.66 50.08 23.82
  Q 47.07 16.62 39.06 13.44"
/>
<path stroke="#94d38d" vector-effect="non-scaling-stroke" d="
  M 23.89 45.29
  Q 34.08 50.31 42.19 43.44
  Q 47.08 39.29 47.43 33.22
  Q 47.76 27.64 44.58 22.93
  Q 40.91 17.48 34.01 16.62
  Q 29.76 16.10 26.11 17.51
  Q 22.06 19.07 19.56 22.56
  Q 13.87 30.53 18.52 39.57
  A 1.63 1.17 44.1 0 1 18.69 40.50
  L 17.65 45.90
  A 0.39 0.38 89.2 0 0 18.11 46.36
  L 22.96 45.18
  A 1.47 1.35 49.2 0 1 23.89 45.29"
/>
<path stroke="#94d38d" vector-effect="non-scaling-stroke" d="
  M 37.85 35.04
  Q 36.67 34.72 35.95 36.02
  A 1.49 1.48 27.8 0 1 33.99 36.62
  Q 30.17 34.72 27.43 31.05
  A 1.28 1.28 -90.0 0 1 27.43 29.51
  Q 29.43 26.86 26.33 23.03
  A 1.36 1.36 51.3 0 0 24.51 22.77
  Q 22.13 24.40 22.03 27.12
  Q 21.96 29.06 23.37 31.52
  Q 27.14 38.14 34.55 40.87
  Q 39.44 42.67 42.26 38.49
  Q 43.38 36.82 41.49 36.16
  Q 39.82 35.57 37.85 35.04"
/>
</g>
<path fill="#29a71a" d="
  M 30.81 0.00
  L 33.56 0.00
  Q 54.57 2.14 62.19 21.56
  Q 63.61 25.18 64.00 31.31
  L 64.00 33.06
  Q 60.78 60.69 33.19 64.00
  L 30.44 64.00
  Q 3.42 60.48 0.00 33.44
  L 0.00 30.44
  Q 3.53 3.26 30.81 0.00
  Z
  M 39.06 13.44
  Q 33.51 11.23 27.91 12.47
  Q 22.80 13.61 18.49 17.57
  Q 8.88 26.43 14.08 40.54
  A 1.92 1.70 43.7 0 1 14.16 41.49
  L 12.30 50.61
  A 1.01 0.99 89.5 0 0 13.49 51.80
  L 21.91 49.94
  A 3.86 3.64 -40.4 0 1 23.89 50.04
  Q 32.08 52.82 38.92 50.06
  Q 48.28 46.29 50.81 37.82
  Q 52.95 30.66 50.08 23.82
  Q 47.07 16.62 39.06 13.44
  Z"
/>
<path fill="#ffffff" d="
  M 39.06 13.44
  Q 47.07 16.62 50.08 23.82
  Q 52.95 30.66 50.81 37.82
  Q 48.28 46.29 38.92 50.06
  Q 32.08 52.82 23.89 50.04
  A 3.86 3.64 -40.4 0 0 21.91 49.94
  L 13.49 51.80
  A 1.01 0.99 89.5 0 1 12.30 50.61
  L 14.16 41.49
  A 1.92 1.70 43.7 0 0 14.08 40.54
  Q 8.88 26.43 18.49 17.57
  Q 22.80 13.61 27.91 12.47
  Q 33.51 11.23 39.06 13.44
  Z
  M 23.89 45.29
  Q 34.08 50.31 42.19 43.44
  Q 47.08 39.29 47.43 33.22
  Q 47.76 27.64 44.58 22.93
  Q 40.91 17.48 34.01 16.62
  Q 29.76 16.10 26.11 17.51
  Q 22.06 19.07 19.56 22.56
  Q 13.87 30.53 18.52 39.57
  A 1.63 1.17 44.1 0 1 18.69 40.50
  L 17.65 45.90
  A 0.39 0.38 89.2 0 0 18.11 46.36
  L 22.96 45.18
  A 1.47 1.35 49.2 0 1 23.89 45.29
  Z"
/>
<path fill="#29a71a" d="
  M 22.96 45.18
  L 18.11 46.36
  A 0.39 0.38 89.2 0 1 17.65 45.90
  L 18.69 40.50
  A 1.63 1.17 44.1 0 0 18.52 39.57
  Q 13.87 30.53 19.56 22.56
  Q 22.06 19.07 26.11 17.51
  Q 29.76 16.10 34.01 16.62
  Q 40.91 17.48 44.58 22.93
  Q 47.76 27.64 47.43 33.22
  Q 47.08 39.29 42.19 43.44
  Q 34.08 50.31 23.89 45.29
  A 1.47 1.35 49.2 0 0 22.96 45.18
  Z
  M 37.85 35.04
  Q 36.67 34.72 35.95 36.02
  A 1.49 1.48 27.8 0 1 33.99 36.62
  Q 30.17 34.72 27.43 31.05
  A 1.28 1.28 -90.0 0 1 27.43 29.51
  Q 29.43 26.86 26.33 23.03
  A 1.36 1.36 51.3 0 0 24.51 22.77
  Q 22.13 24.40 22.03 27.12
  Q 21.96 29.06 23.37 31.52
  Q 27.14 38.14 34.55 40.87
  Q 39.44 42.67 42.26 38.49
  Q 43.38 36.82 41.49 36.16
  Q 39.82 35.57 37.85 35.04
  Z"
/>
<path fill="#ffffff" d="
  M 37.85 35.04
  Q 39.82 35.57 41.49 36.16
  Q 43.38 36.82 42.26 38.49
  Q 39.44 42.67 34.55 40.87
  Q 27.14 38.14 23.37 31.52
  Q 21.96 29.06 22.03 27.12
  Q 22.13 24.40 24.51 22.77
  A 1.36 1.36 56.2 0 1 26.33 23.03
  Q 29.43 26.86 27.43 29.51
  A 1.28 1.28 0.0 0 0 27.43 31.05
  Q 30.17 34.72 33.99 36.62
  A 1.49 1.48 27.8 0 0 35.95 36.02
  Q 36.67 34.72 37.85 35.04
  Z"
/>
</svg>
