<?xml version="1.0" encoding="UTF-8" standalone="no"?>
<!DOCTYPE svg PUBLIC "-//W3C//DTD SVG 1.1//EN" "http://www.w3.org/Graphics/SVG/1.1/DTD/svg11.dtd">
<svg xmlns="http://www.w3.org/2000/svg" version="1.1" viewBox="0 0 128 128">
<g stroke-width="2.00" fill="none" stroke-linecap="butt">
<path stroke="#29486e" vector-effect="non-scaling-stroke" d="
  M 4.82 85.31
  Q 5.14 55.68 5.00 26.06
  Q 5.00 25.99 4.91 24.45
  Q 4.74 21.53 7.06 21.04
  Q 7.26 21.00 10.95 21.00
  Q 59.23 21.00 107.74 21.00
  Q 110.16 21.00 110.20 23.43
  Q 110.29 29.73 110.25 36.85
  Q 110.25 36.97 110.19 37.63
  Q 110.02 39.41 112.32 39.77
  A 0.44 0.43 -86.1 0 0 112.82 39.33
  Q 112.72 31.98 112.74 24.94
  Q 112.75 22.25 112.29 21.12
  Q 111.34 18.81 108.75 18.75
  Q 71.42 17.91 7.47 18.91
  Q 5.21 18.94 4.12 19.78
  Q 2.50 21.03 2.50 23.25
  Q 2.50 54.25 2.50 85.25
  A 0.91 0.77 -78.4 0 0 2.92 86.02
  Q 3.69 86.43 4.40 86.08
  A 0.93 0.72 80.7 0 0 4.82 85.31"
/>
<path stroke="#7e333f" vector-effect="non-scaling-stroke" d="
  M 13.0114 23.9540
  A 0.43 0.43 0.0 0 0 12.5852 23.5203
  L 7.9454 23.4798
  A 0.43 0.43 0.0 0 0 7.5116 23.9061
  L 7.4886 26.5460
  A 0.43 0.43 0.0 0 0 7.9148 26.9797
  L 12.5546 27.0202
  A 0.43 0.43 0.0 0 0 12.9884 26.5939
  L 13.0114 23.9540"
/>
<path stroke="#29486e" vector-effect="non-scaling-stroke" d="
  M 107.76 23.87
  A 0.37 0.37 0.0 0 0 107.39 23.50
  L 15.87 23.50
  A 0.37 0.37 0.0 0 0 15.50 23.87
  L 15.50 26.63
  A 0.37 0.37 0.0 0 0 15.87 27.00
  L 107.39 27.00
  A 0.37 0.37 0.0 0 0 107.76 26.63
  L 107.76 23.87"
/>
<path stroke="#777a7e" vector-effect="non-scaling-stroke" d="
  M 51.69 86.03
  Q 53.78 85.99 53.15 83.72
  A 0.74 0.69 -4.8 0 0 52.50 83.21
  Q 44.51 82.62 41.50 83.00
  Q 36.83 83.59 36.08 80.27
  Q 36.00 79.91 36.00 75.22
  Q 36.00 68.20 36.00 61.19
  Q 36.00 58.89 36.62 57.94
  Q 37.64 56.35 40.00 56.40
  Q 46.13 56.50 52.60 56.50
  A 0.49 0.49 88.9 0 0 53.09 55.99
  Q 52.87 51.05 53.08 46.45
  Q 53.25 42.89 54.50 41.36
  Q 56.34 39.11 60.00 39.25
  Q 68.60 39.59 99.50 39.17
  Q 103.00 39.13 107.19 39.27
  A 0.62 0.60 -88.7 0 0 107.82 38.65
  L 107.76 30.02
  A 0.53 0.51 89.4 0 0 107.25 29.50
  L 8.06 29.50
  A 0.56 0.56 1.3 0 0 7.50 30.06
  L 7.50 85.46
  A 0.78 0.78 88.1 0 0 8.28 86.24
  Q 30.59 86.39 51.69 86.03"
/>
<path stroke="#29486e" vector-effect="non-scaling-stroke" d="
  M 59.91 117.44
  A 1.67 1.66 -90.0 0 1 58.25 115.77
  L 58.25 46.00
  A 1.75 1.75 -45.0 0 1 60.00 44.25
  L 108.15 44.25
  Q 110.22 44.25 110.20 46.24
  L 110.09 60.69
  A 1.06 0.77 -77.0 0 0 110.44 61.51
  Q 111.27 62.10 112.25 61.68
  A 0.81 0.77 77.8 0 0 112.70 60.94
  L 112.50 43.98
  Q 112.47 41.80 110.20 41.75
  Q 84.25 41.13 59.09 41.73
  Q 55.69 41.81 55.69 45.17
  L 55.75 117.48
  Q 55.75 119.98 58.24 120.00
  L 90.94 120.19
  Q 91.58 120.20 91.28 119.72
  L 90.11 117.85
  A 1.12 0.66 -8.6 0 0 89.24 117.50
  L 59.91 117.44"
/>
<path stroke="#777a7e" vector-effect="non-scaling-stroke" d="
  M 67.44 111.69
  Q 64.61 111.70 64.18 108.81
  Q 63.61 104.97 64.25 100.23
  Q 64.55 98.00 66.80 98.00
  Q 77.11 98.00 87.46 98.00
  Q 87.53 98.00 88.53 98.09
  Q 90.82 98.28 90.03 94.79
  A 0.60 0.60 82.5 0 0 89.42 94.32
  Q 78.03 94.82 66.48 94.25
  Q 64.46 94.15 64.24 92.14
  Q 63.84 88.64 63.84 85.00
  Q 63.83 81.50 66.40 80.85
  Q 66.81 80.75 70.60 80.75
  Q 78.31 80.75 86.02 80.75
  Q 86.09 80.75 87.97 80.87
  Q 91.40 81.09 90.12 77.53
  A 0.72 0.69 -10.3 0 0 89.44 77.08
  L 67.68 77.25
  Q 64.63 77.27 64.16 74.18
  Q 63.60 70.48 64.25 65.73
  Q 64.55 63.58 66.72 63.56
  Q 78.28 63.45 90.25 63.61
  Q 91.98 63.64 93.54 62.62
  Q 94.87 61.75 96.46 61.75
  L 107.09 61.75
  A 0.66 0.65 0.0 0 0 107.75 61.10
  L 107.69 47.31
  A 0.51 0.50 0.0 0 0 107.18 46.81
  L 61.31 46.81
  A 0.50 0.50 45.0 0 0 60.81 47.31
  L 60.75 114.50
  A 0.50 0.50 -45.0 0 0 61.25 115.00
  L 89.46 115.00
  A 0.66 0.66 5.2 0 0 90.11 114.46
  Q 90.40 112.97 90.12 112.03
  A 0.74 0.62 -6.6 0 0 89.43 111.58
  L 67.44 111.69"
/>
<path stroke="#7b6426" vector-effect="non-scaling-stroke" d="
  M 53.0022 59.5573
  A 0.56 0.56 0.0 0 0 52.4412 58.9983
  L 39.0413 59.0217
  A 0.56 0.56 0.0 0 0 38.4822 59.5827
  L 38.5178 79.9427
  A 0.56 0.56 0.0 0 0 39.0788 80.5017
  L 52.4787 80.4783
  A 0.56 0.56 0.0 0 0 53.0378 79.9173
  L 53.0022 59.5573"
/>
<path stroke="#29486e" vector-effect="non-scaling-stroke" d="
  M 125.49 68.35
  A 4.11 4.11 0.0 0 0 121.38 64.24
  L 96.86 64.24
  A 4.11 4.11 0.0 0 0 92.75 68.35
  L 92.75 116.03
  A 4.11 4.11 0.0 0 0 96.86 120.14
  L 121.38 120.14
  A 4.11 4.11 0.0 0 0 125.49 116.03
  L 125.49 68.35"
/>
<path stroke="#386b7d" vector-effect="non-scaling-stroke" d="
  M 90.2969 66.4408
  A 0.42 0.42 0.0 0 0 89.8776 66.0200
  L 66.9376 65.9800
  A 0.42 0.42 0.0 0 0 66.5169 66.3993
  L 66.5031 74.2992
  A 0.42 0.42 0.0 0 0 66.9224 74.7200
  L 89.8624 74.7600
  A 0.42 0.42 0.0 0 0 90.2831 74.3407
  L 90.2969 66.4408"
/>
<path stroke="#7b6426" vector-effect="non-scaling-stroke" d="
  M 90.2529 83.8214
  A 0.55 0.55 0.0 0 0 89.7049 83.2695
  L 67.0850 83.1905
  A 0.55 0.55 0.0 0 0 66.5331 83.7386
  L 66.5071 91.1986
  A 0.55 0.55 0.0 0 0 67.0551 91.7505
  L 89.6750 91.8295
  A 0.55 0.55 0.0 0 0 90.2269 91.2814
  L 90.2529 83.8214"
/>
<path stroke="#777a7e" vector-effect="non-scaling-stroke" d="
  M 52.45 101.81
  A 0.54 0.54 0.5 0 0 53.00 101.27
  L 53.00 89.06
  A 0.56 0.56 0.0 0 0 52.44 88.50
  L 3.06 88.50
  A 0.56 0.56 90.0 0 0 2.50 89.06
  Q 2.50 92.70 2.50 95.92
  Q 2.50 98.39 3.06 99.49
  Q 4.02 101.37 6.25 101.75
  Q 8.91 102.21 12.75 102.01
  Q 17.94 101.75 19.25 101.74
  Q 35.64 101.71 52.45 101.81"
/>
<path stroke="#7e333f" vector-effect="non-scaling-stroke" d="
  M 90.2466 101.0807
  A 0.58 0.58 0.0 0 0 89.6676 100.4997
  L 67.1076 100.4603
  A 0.58 0.58 0.0 0 0 66.5266 101.0393
  L 66.5134 108.6193
  A 0.58 0.58 0.0 0 0 67.0924 109.2003
  L 89.6524 109.2397
  A 0.58 0.58 0.0 0 0 90.2334 108.6607
  L 90.2466 101.0807"
/>
<path stroke="#646c73" vector-effect="non-scaling-stroke" d="
  M 53.0066 104.7892
  A 0.28 0.28 0.0 0 0 52.7276 104.5082
  L 48.0476 104.4919
  A 0.28 0.28 0.0 0 0 47.7666 104.7709
  L 47.7334 114.2908
  A 0.28 0.28 0.0 0 0 48.0124 114.5718
  L 52.6924 114.5881
  A 0.28 0.28 0.0 0 0 52.9734 114.3091
  L 53.0066 104.7892"
/>
<path stroke="#777a7e" vector-effect="non-scaling-stroke" d="
  M 38.41 120.07
  Q 45.49 120.17 53.03 120.26
  A 0.57 0.53 -5.7 0 0 53.60 119.62
  L 53.15 117.51
  A 0.74 0.58 -5.2 0 0 52.44 117.05
  L 37.44 117.16
  A 1.27 1.26 21.9 0 0 36.57 117.53
  Q 35.15 118.95 36.54 119.71
  Q 37.17 120.06 38.41 120.07"
/>
<path stroke="#777a7e" vector-effect="non-scaling-stroke" d="
  M 19.4270 34.0136
  A 1.05 1.05 0.0 0 0 18.3624 32.9783
  L 15.2427 33.0219
  A 1.05 1.05 0.0 0 0 14.2075 34.0865
  L 14.2130 34.4864
  A 1.05 1.05 0.0 0 0 15.2776 35.5217
  L 18.3973 35.4781
  A 1.05 1.05 0.0 0 0 19.4325 34.4135
  L 19.4270 34.0136"
/>
<path stroke="#777a7e" vector-effect="non-scaling-stroke" d="
  M 28.2098 34.1154
  A 1.12 1.12 0.0 0 0 27.0878 32.9974
  L 24.0678 33.0026
  A 1.12 1.12 0.0 0 0 22.9498 34.1246
  L 22.9502 34.3846
  A 1.12 1.12 0.0 0 0 24.0722 35.5026
  L 27.0922 35.4974
  A 1.12 1.12 0.0 0 0 28.2102 34.3754
  L 28.2098 34.1154"
/>
<path stroke="#777a7e" vector-effect="non-scaling-stroke" d="
  M 36.9344 33.9910
  A 0.95 0.95 0.0 0 0 35.9994 33.0262
  L 32.6798 32.9741
  A 0.95 0.95 0.0 0 0 31.7150 33.9090
  L 31.7056 34.5090
  A 0.95 0.95 0.0 0 0 32.6406 35.4738
  L 35.9602 35.5259
  A 0.95 0.95 0.0 0 0 36.9250 34.5910
  L 36.9344 33.9910"
/>
<path stroke="#777a7e" vector-effect="non-scaling-stroke" d="
  M 33.00 59.89
  A 3.39 3.39 0.0 0 0 29.61 56.50
  L 14.39 56.50
  A 3.39 3.39 0.0 0 0 11.00 59.89
  L 11.00 79.61
  A 3.39 3.39 0.0 0 0 14.39 83.00
  L 29.61 83.00
  A 3.39 3.39 0.0 0 0 33.00 79.61
  L 33.00 59.89"
/>
<path stroke="#777a7e" vector-effect="non-scaling-stroke" d="
  M 69.95 51.20
  A 1.16 1.16 0.0 0 0 68.79 50.04
  L 65.71 50.04
  A 1.16 1.16 0.0 0 0 64.55 51.20
  L 64.55 51.32
  A 1.16 1.16 0.0 0 0 65.71 52.48
  L 68.79 52.48
  A 1.16 1.16 0.0 0 0 69.95 51.32
  L 69.95 51.20"
/>
<path stroke="#777a7e" vector-effect="non-scaling-stroke" d="
  M 78.6895 51.1812
  A 1.16 1.16 0.0 0 0 77.5214 50.0293
  L 74.4615 50.0507
  A 1.16 1.16 0.0 0 0 73.3096 51.2188
  L 73.3105 51.3388
  A 1.16 1.16 0.0 0 0 74.4786 52.4907
  L 77.5385 52.4693
  A 1.16 1.16 0.0 0 0 78.6904 51.3012
  L 78.6895 51.1812"
/>
<path stroke="#777a7e" vector-effect="non-scaling-stroke" d="
  M 87.4303 51.2041
  A 1.16 1.16 0.0 0 0 86.2764 50.0380
  L 83.2164 50.0220
  A 1.16 1.16 0.0 0 0 82.0504 51.1759
  L 82.0497 51.2959
  A 1.16 1.16 0.0 0 0 83.2036 52.4620
  L 86.2636 52.4780
  A 1.16 1.16 0.0 0 0 87.4296 51.3241
  L 87.4303 51.2041"
/>
<path stroke="#386b7d" vector-effect="non-scaling-stroke" d="
  M 30.4823 59.5852
  A 0.60 0.60 0.0 0 0 29.8812 58.9862
  L 14.0812 59.0138
  A 0.60 0.60 0.0 0 0 13.4823 59.6149
  L 13.5177 79.9148
  A 0.60 0.60 0.0 0 0 14.1188 80.5138
  L 29.9188 80.4862
  A 0.60 0.60 0.0 0 0 30.5177 79.8851
  L 30.4823 59.5852"
/>
<path stroke="#29486e" vector-effect="non-scaling-stroke" d="
  M 121.30 66.77
  Q 119.96 66.34 118.27 66.40
  Q 118.01 66.41 115.75 66.35
  Q 113.66 66.31 112.40 67.74
  Q 110.58 69.82 110.28 69.96
  Q 108.04 70.96 105.82 68.04
  Q 104.65 66.50 102.71 66.50
  L 98.12 66.50
  Q 94.74 66.50 94.75 69.84
  L 94.98 114.90
  Q 95.00 118.00 98.15 118.00
  Q 109.00 118.00 119.75 117.88
  Q 123.25 117.84 123.25 114.25
  Q 123.25 92.37 123.25 69.45
  Q 123.25 67.40 121.30 66.77"
/>
<path stroke="#777a7e" vector-effect="non-scaling-stroke" d="
  M 97.52 114.86
  A 0.60 0.60 89.0 0 0 98.12 115.44
  L 120.07 115.50
  A 0.68 0.68 0.0 0 0 120.75 114.82
  L 120.69 69.56
  A 0.60 0.51 -89.0 0 0 120.20 68.96
  L 115.66 68.83
  A 1.87 1.40 -63.7 0 0 114.37 69.48
  Q 108.56 76.21 103.78 69.41
  A 1.34 1.21 76.0 0 0 103.01 68.89
  Q 100.44 68.37 97.92 69.05
  A 0.68 0.66 83.2 0 0 97.43 69.69
  Q 96.93 91.86 97.52 114.86"
/>
<path stroke="#777a7e" vector-effect="non-scaling-stroke" d="
  M 117.9506 75.6983
  A 1.16 1.16 0.0 0 0 116.8028 74.5262
  L 113.7230 74.4939
  A 1.16 1.16 0.0 0 0 112.5509 75.6417
  L 112.5494 75.7817
  A 1.16 1.16 0.0 0 0 113.6972 76.9538
  L 116.7770 76.9861
  A 1.16 1.16 0.0 0 0 117.9491 75.8383
  L 117.9506 75.6983"
/>
<path stroke="#777a7e" vector-effect="non-scaling-stroke" d="
  M 119.0171 84.1126
  A 2.87 2.87 0.0 0 0 116.1421 81.2476
  L 101.9022 81.2724
  A 2.87 2.87 0.0 0 0 99.0372 84.1474
  L 99.0429 87.4074
  A 2.87 2.87 0.0 0 0 101.9179 90.2724
  L 116.1578 90.2476
  A 2.87 2.87 0.0 0 0 119.0228 87.3726
  L 119.0171 84.1126"
/>
<path stroke="#777a7e" vector-effect="non-scaling-stroke" d="
  M 119.01 95.40
  A 2.85 2.85 0.0 0 0 116.16 92.55
  L 101.90 92.55
  A 2.85 2.85 0.0 0 0 99.05 95.40
  L 99.05 98.66
  A 2.85 2.85 0.0 0 0 101.90 101.51
  L 116.16 101.51
  A 2.85 2.85 0.0 0 0 119.01 98.66
  L 119.01 95.40"
/>
<path stroke="#777a7e" vector-effect="non-scaling-stroke" d="
  M 119.02 106.86
  A 2.87 2.87 0.0 0 0 116.15 103.99
  L 101.91 103.99
  A 2.87 2.87 0.0 0 0 99.04 106.86
  L 99.04 110.10
  A 2.87 2.87 0.0 0 0 101.91 112.97
  L 116.15 112.97
  A 2.87 2.87 0.0 0 0 119.02 110.10
  L 119.02 106.86"
/>
<path stroke="#386b7d" vector-effect="non-scaling-stroke" d="
  M 116.51 84.31
  A 0.56 0.56 0.0 0 0 115.95 83.75
  L 102.07 83.75
  A 0.56 0.56 0.0 0 0 101.51 84.31
  L 101.51 87.19
  A 0.56 0.56 0.0 0 0 102.07 87.75
  L 115.95 87.75
  A 0.56 0.56 0.0 0 0 116.51 87.19
  L 116.51 84.31"
/>
<path stroke="#7b6426" vector-effect="non-scaling-stroke" d="
  M 116.61 95.70
  A 0.68 0.68 0.0 0 0 115.93 95.02
  L 102.19 95.02
  A 0.68 0.68 0.0 0 0 101.51 95.70
  L 101.51 98.32
  A 0.68 0.68 0.0 0 0 102.19 99.00
  L 115.93 99.00
  A 0.68 0.68 0.0 0 0 116.61 98.32
  L 116.61 95.70"
/>
<path stroke="#7e333f" vector-effect="non-scaling-stroke" d="
  M 116.4680 106.6778
  A 0.27 0.27 0.0 0 0 116.1961 106.4097
  L 101.7765 106.5104
  A 0.27 0.27 0.0 0 0 101.5084 106.7823
  L 101.5320 110.1622
  A 0.27 0.27 0.0 0 0 101.8039 110.4303
  L 116.2235 110.3296
  A 0.27 0.27 0.0 0 0 116.4916 110.0577
  L 116.4680 106.6778"
/>
</g>
<path fill="#fc657e" d="
  M 64.13 8.89
  Q 63.68 8.64 64.15 8.43
  Q 65.76 7.71 66.14 6.28
  Q 66.37 5.41 66.87 6.16
  Q 67.87 7.63 69.23 8.35
  A 0.33 0.32 -52.5 0 1 69.29 8.88
  L 66.84 11.14
  A 0.35 0.34 55.4 0 1 66.30 11.03
  Q 65.65 9.74 64.13 8.89
  Z"
/>
<circle fill="#70d6f9" cx="54.34" cy="10.69" r="1.62"/>
<path fill="#000000" d="
  M 128.00 67.31
  L 128.00 117.06
  Q 126.08 123.05 119.00 122.50
  Q 115.00 122.19 103.83 122.50
  Q 96.44 122.70 88.66 122.55
  Q 76.62 122.32 64.58 122.58
  Q 58.33 122.71 51.92 122.50
  Q 42.41 122.18 39.25 122.50
  Q 37.08 122.72 35.53 121.99
  Q 33.84 121.19 33.45 119.25
  Q 33.04 117.23 34.56 115.86
  Q 35.59 114.93 37.57 114.64
  Q 40.83 114.16 43.90 114.69
  A 1.16 1.15 4.9 0 0 45.25 113.56
  L 45.25 105.24
  A 0.80 0.79 89.6 0 0 44.45 104.44
  Q 26.28 104.55 8.00 104.50
  Q 1.60 104.48 0.00 98.19
  L 0.00 22.19
  Q 1.47 17.17 5.77 16.30
  Q 6.03 16.25 13.23 16.25
  Q 57.33 16.25 101.43 16.25
  Q 109.14 16.25 110.06 16.48
  Q 115.40 17.82 115.36 25.00
  Q 115.25 43.22 115.31 60.01
  Q 115.32 62.26 117.54 61.93
  Q 125.89 60.69 128.00 67.31
  Z
  M 4.82 85.31
  Q 5.14 55.68 5.00 26.06
  Q 5.00 25.99 4.91 24.45
  Q 4.74 21.53 7.06 21.04
  Q 7.26 21.00 10.95 21.00
  Q 59.23 21.00 107.74 21.00
  Q 110.16 21.00 110.20 23.43
  Q 110.29 29.73 110.25 36.85
  Q 110.25 36.97 110.19 37.63
  Q 110.02 39.41 112.32 39.77
  A 0.44 0.43 -86.1 0 0 112.82 39.33
  Q 112.72 31.98 112.74 24.94
  Q 112.75 22.25 112.29 21.12
  Q 111.34 18.81 108.75 18.75
  Q 71.42 17.91 7.47 18.91
  Q 5.21 18.94 4.12 19.78
  Q 2.50 21.03 2.50 23.25
  Q 2.50 54.25 2.50 85.25
  A 0.91 0.77 -78.4 0 0 2.92 86.02
  Q 3.69 86.43 4.40 86.08
  A 0.93 0.72 80.7 0 0 4.82 85.31
  Z
  M 13.0114 23.9540
  A 0.43 0.43 0.0 0 0 12.5852 23.5203
  L 7.9454 23.4798
  A 0.43 0.43 0.0 0 0 7.5116 23.9061
  L 7.4886 26.5460
  A 0.43 0.43 0.0 0 0 7.9148 26.9797
  L 12.5546 27.0202
  A 0.43 0.43 0.0 0 0 12.9884 26.5939
  L 13.0114 23.9540
  Z
  M 107.76 23.87
  A 0.37 0.37 0.0 0 0 107.39 23.50
  L 15.87 23.50
  A 0.37 0.37 0.0 0 0 15.50 23.87
  L 15.50 26.63
  A 0.37 0.37 0.0 0 0 15.87 27.00
  L 107.39 27.00
  A 0.37 0.37 0.0 0 0 107.76 26.63
  L 107.76 23.87
  Z
  M 51.69 86.03
  Q 53.78 85.99 53.15 83.72
  A 0.74 0.69 -4.8 0 0 52.50 83.21
  Q 44.51 82.62 41.50 83.00
  Q 36.83 83.59 36.08 80.27
  Q 36.00 79.91 36.00 75.22
  Q 36.00 68.20 36.00 61.19
  Q 36.00 58.89 36.62 57.94
  Q 37.64 56.35 40.00 56.40
  Q 46.13 56.50 52.60 56.50
  A 0.49 0.49 88.9 0 0 53.09 55.99
  Q 52.87 51.05 53.08 46.45
  Q 53.25 42.89 54.50 41.36
  Q 56.34 39.11 60.00 39.25
  Q 68.60 39.59 99.50 39.17
  Q 103.00 39.13 107.19 39.27
  A 0.62 0.60 -88.7 0 0 107.82 38.65
  L 107.76 30.02
  A 0.53 0.51 89.4 0 0 107.25 29.50
  L 8.06 29.50
  A 0.56 0.56 1.3 0 0 7.50 30.06
  L 7.50 85.46
  A 0.78 0.78 88.1 0 0 8.28 86.24
  Q 30.59 86.39 51.69 86.03
  Z
  M 59.91 117.44
  A 1.67 1.66 -90.0 0 1 58.25 115.77
  L 58.25 46.00
  A 1.75 1.75 -45.0 0 1 60.00 44.25
  L 108.15 44.25
  Q 110.22 44.25 110.20 46.24
  L 110.09 60.69
  A 1.06 0.77 -77.0 0 0 110.44 61.51
  Q 111.27 62.10 112.25 61.68
  A 0.81 0.77 77.8 0 0 112.70 60.94
  L 112.50 43.98
  Q 112.47 41.80 110.20 41.75
  Q 84.25 41.13 59.09 41.73
  Q 55.69 41.81 55.69 45.17
  L 55.75 117.48
  Q 55.75 119.98 58.24 120.00
  L 90.94 120.19
  Q 91.58 120.20 91.28 119.72
  L 90.11 117.85
  A 1.12 0.66 -8.6 0 0 89.24 117.50
  L 59.91 117.44
  Z
  M 67.44 111.69
  Q 64.61 111.70 64.18 108.81
  Q 63.61 104.97 64.25 100.23
  Q 64.55 98.00 66.80 98.00
  Q 77.11 98.00 87.46 98.00
  Q 87.53 98.00 88.53 98.09
  Q 90.82 98.28 90.03 94.79
  A 0.60 0.60 82.5 0 0 89.42 94.32
  Q 78.03 94.82 66.48 94.25
  Q 64.46 94.15 64.24 92.14
  Q 63.84 88.64 63.84 85.00
  Q 63.83 81.50 66.40 80.85
  Q 66.81 80.75 70.60 80.75
  Q 78.31 80.75 86.02 80.75
  Q 86.09 80.75 87.97 80.87
  Q 91.40 81.09 90.12 77.53
  A 0.72 0.69 -10.3 0 0 89.44 77.08
  L 67.68 77.25
  Q 64.63 77.27 64.16 74.18
  Q 63.60 70.48 64.25 65.73
  Q 64.55 63.58 66.72 63.56
  Q 78.28 63.45 90.25 63.61
  Q 91.98 63.64 93.54 62.62
  Q 94.87 61.75 96.46 61.75
  L 107.09 61.75
  A 0.66 0.65 0.0 0 0 107.75 61.10
  L 107.69 47.31
  A 0.51 0.50 0.0 0 0 107.18 46.81
  L 61.31 46.81
  A 0.50 0.50 45.0 0 0 60.81 47.31
  L 60.75 114.50
  A 0.50 0.50 -45.0 0 0 61.25 115.00
  L 89.46 115.00
  A 0.66 0.66 5.2 0 0 90.11 114.46
  Q 90.40 112.97 90.12 112.03
  A 0.74 0.62 -6.6 0 0 89.43 111.58
  L 67.44 111.69
  Z
  M 53.0022 59.5573
  A 0.56 0.56 0.0 0 0 52.4412 58.9983
  L 39.0413 59.0217
  A 0.56 0.56 0.0 0 0 38.4822 59.5827
  L 38.5178 79.9427
  A 0.56 0.56 0.0 0 0 39.0788 80.5017
  L 52.4787 80.4783
  A 0.56 0.56 0.0 0 0 53.0378 79.9173
  L 53.0022 59.5573
  Z
  M 125.49 68.35
  A 4.11 4.11 0.0 0 0 121.38 64.24
  L 96.86 64.24
  A 4.11 4.11 0.0 0 0 92.75 68.35
  L 92.75 116.03
  A 4.11 4.11 0.0 0 0 96.86 120.14
  L 121.38 120.14
  A 4.11 4.11 0.0 0 0 125.49 116.03
  L 125.49 68.35
  Z
  M 90.2969 66.4408
  A 0.42 0.42 0.0 0 0 89.8776 66.0200
  L 66.9376 65.9800
  A 0.42 0.42 0.0 0 0 66.5169 66.3993
  L 66.5031 74.2992
  A 0.42 0.42 0.0 0 0 66.9224 74.7200
  L 89.8624 74.7600
  A 0.42 0.42 0.0 0 0 90.2831 74.3407
  L 90.2969 66.4408
  Z
  M 90.2529 83.8214
  A 0.55 0.55 0.0 0 0 89.7049 83.2695
  L 67.0850 83.1905
  A 0.55 0.55 0.0 0 0 66.5331 83.7386
  L 66.5071 91.1986
  A 0.55 0.55 0.0 0 0 67.0551 91.7505
  L 89.6750 91.8295
  A 0.55 0.55 0.0 0 0 90.2269 91.2814
  L 90.2529 83.8214
  Z
  M 52.45 101.81
  A 0.54 0.54 0.5 0 0 53.00 101.27
  L 53.00 89.06
  A 0.56 0.56 0.0 0 0 52.44 88.50
  L 3.06 88.50
  A 0.56 0.56 90.0 0 0 2.50 89.06
  Q 2.50 92.70 2.50 95.92
  Q 2.50 98.39 3.06 99.49
  Q 4.02 101.37 6.25 101.75
  Q 8.91 102.21 12.75 102.01
  Q 17.94 101.75 19.25 101.74
  Q 35.64 101.71 52.45 101.81
  Z
  M 90.2466 101.0807
  A 0.58 0.58 0.0 0 0 89.6676 100.4997
  L 67.1076 100.4603
  A 0.58 0.58 0.0 0 0 66.5266 101.0393
  L 66.5134 108.6193
  A 0.58 0.58 0.0 0 0 67.0924 109.2003
  L 89.6524 109.2397
  A 0.58 0.58 0.0 0 0 90.2334 108.6607
  L 90.2466 101.0807
  Z
  M 53.0066 104.7892
  A 0.28 0.28 0.0 0 0 52.7276 104.5082
  L 48.0476 104.4919
  A 0.28 0.28 0.0 0 0 47.7666 104.7709
  L 47.7334 114.2908
  A 0.28 0.28 0.0 0 0 48.0124 114.5718
  L 52.6924 114.5881
  A 0.28 0.28 0.0 0 0 52.9734 114.3091
  L 53.0066 104.7892
  Z
  M 38.41 120.07
  Q 45.49 120.17 53.03 120.26
  A 0.57 0.53 -5.7 0 0 53.60 119.62
  L 53.15 117.51
  A 0.74 0.58 -5.2 0 0 52.44 117.05
  L 37.44 117.16
  A 1.27 1.26 21.9 0 0 36.57 117.53
  Q 35.15 118.95 36.54 119.71
  Q 37.17 120.06 38.41 120.07
  Z"
/>
<path fill="#5290db" d="
  M 4.40 86.08
  Q 3.69 86.43 2.92 86.02
  A 0.91 0.77 -78.4 0 1 2.50 85.25
  Q 2.50 54.25 2.50 23.25
  Q 2.50 21.03 4.12 19.78
  Q 5.21 18.94 7.47 18.91
  Q 71.42 17.91 108.75 18.75
  Q 111.34 18.81 112.29 21.12
  Q 112.75 22.25 112.74 24.94
  Q 112.72 31.98 112.82 39.33
  A 0.44 0.43 -86.1 0 1 112.32 39.77
  Q 110.02 39.41 110.19 37.63
  Q 110.25 36.97 110.25 36.85
  Q 110.29 29.73 110.20 23.43
  Q 110.16 21.00 107.74 21.00
  Q 59.23 21.00 10.95 21.00
  Q 7.26 21.00 7.06 21.04
  Q 4.74 21.53 4.91 24.45
  Q 5.00 25.99 5.00 26.06
  Q 5.14 55.68 4.82 85.31
  A 0.93 0.72 80.7 0 1 4.40 86.08
  Z"
/>
<rect fill="#fc657e" x="-2.75" y="-1.75" transform="translate(10.25,25.25) rotate(0.5)" width="5.50" height="3.50" rx="0.43"/>
<rect fill="#5290db" x="15.50" y="23.50" width="92.26" height="3.50" rx="0.37"/>
<path fill="#edf4fc" d="
  M 51.69 86.03
  Q 30.59 86.39 8.28 86.24
  A 0.78 0.78 -86.3 0 1 7.50 85.46
  L 7.50 30.06
  A 0.56 0.56 -2.5 0 1 8.06 29.50
  L 107.25 29.50
  A 0.53 0.51 89.4 0 1 107.76 30.02
  L 107.82 38.65
  A 0.62 0.60 -88.7 0 1 107.19 39.27
  Q 103.00 39.13 99.50 39.17
  Q 68.60 39.59 60.00 39.25
  Q 56.34 39.11 54.50 41.36
  Q 53.25 42.89 53.08 46.45
  Q 52.87 51.05 53.09 55.99
  A 0.49 0.49 88.9 0 1 52.60 56.50
  Q 46.13 56.50 40.00 56.40
  Q 37.64 56.35 36.62 57.94
  Q 36.00 58.89 36.00 61.19
  Q 36.00 68.20 36.00 75.22
  Q 36.00 79.91 36.08 80.27
  Q 36.83 83.59 41.50 83.00
  Q 44.51 82.62 52.50 83.21
  A 0.74 0.69 -4.8 0 1 53.15 83.72
  Q 53.78 85.99 51.69 86.03
  Z
  M 19.4270 34.0136
  A 1.05 1.05 0.0 0 0 18.3624 32.9783
  L 15.2427 33.0219
  A 1.05 1.05 0.0 0 0 14.2075 34.0865
  L 14.2130 34.4864
  A 1.05 1.05 0.0 0 0 15.2776 35.5217
  L 18.3973 35.4781
  A 1.05 1.05 0.0 0 0 19.4325 34.4135
  L 19.4270 34.0136
  Z
  M 28.2098 34.1154
  A 1.12 1.12 0.0 0 0 27.0878 32.9974
  L 24.0678 33.0026
  A 1.12 1.12 0.0 0 0 22.9498 34.1246
  L 22.9502 34.3846
  A 1.12 1.12 0.0 0 0 24.0722 35.5026
  L 27.0922 35.4974
  A 1.12 1.12 0.0 0 0 28.2102 34.3754
  L 28.2098 34.1154
  Z
  M 36.9344 33.9910
  A 0.95 0.95 0.0 0 0 35.9994 33.0262
  L 32.6798 32.9741
  A 0.95 0.95 0.0 0 0 31.7150 33.9090
  L 31.7056 34.5090
  A 0.95 0.95 0.0 0 0 32.6406 35.4738
  L 35.9602 35.5259
  A 0.95 0.95 0.0 0 0 36.9250 34.5910
  L 36.9344 33.9910
  Z
  M 33.00 59.89
  A 3.39 3.39 0.0 0 0 29.61 56.50
  L 14.39 56.50
  A 3.39 3.39 0.0 0 0 11.00 59.89
  L 11.00 79.61
  A 3.39 3.39 0.0 0 0 14.39 83.00
  L 29.61 83.00
  A 3.39 3.39 0.0 0 0 33.00 79.61
  L 33.00 59.89
  Z"
/>
<rect fill="#000000" x="-2.61" y="-1.25" transform="translate(16.82,34.25) rotate(-0.8)" width="5.22" height="2.50" rx="1.05"/>
<rect fill="#000000" x="-2.63" y="-1.25" transform="translate(25.58,34.25) rotate(-0.1)" width="5.26" height="2.50" rx="1.12"/>
<rect fill="#000000" x="-2.61" y="-1.25" transform="translate(34.32,34.25) rotate(0.9)" width="5.22" height="2.50" rx="0.95"/>
<path fill="#f5c84c" d="
  M 127.08 38.95
  Q 128.46 39.51 127.00 39.80
  Q 125.68 40.07 125.01 41.50
  Q 124.06 43.54 123.31 41.17
  A 1.70 1.69 89.6 0 0 122.20 40.07
  Q 119.95 39.36 122.17 38.32
  Q 123.41 37.74 123.88 36.58
  Q 124.14 35.94 124.52 36.52
  Q 125.76 38.41 127.08 38.95
  Z"
/>
<path fill="#5290db" d="
  M 59.91 117.44
  L 89.24 117.50
  A 1.12 0.66 -8.6 0 1 90.11 117.85
  L 91.28 119.72
  Q 91.58 120.20 90.94 120.19
  L 58.24 120.00
  Q 55.75 119.98 55.75 117.48
  L 55.69 45.17
  Q 55.69 41.81 59.09 41.73
  Q 84.25 41.13 110.20 41.75
  Q 112.47 41.80 112.50 43.98
  L 112.70 60.94
  A 0.81 0.77 77.8 0 1 112.25 61.68
  Q 111.27 62.10 110.44 61.51
  A 1.06 0.77 -77.0 0 1 110.09 60.69
  L 110.20 46.24
  Q 110.22 44.25 108.15 44.25
  L 60.00 44.25
  A 1.75 1.75 45.0 0 0 58.25 46.00
  L 58.25 115.77
  A 1.67 1.66 90.0 0 0 59.91 117.44
  Z"
/>
<path fill="#edf4fc" d="
  M 67.44 111.69
  L 89.43 111.58
  A 0.74 0.62 -6.6 0 1 90.12 112.03
  Q 90.40 112.97 90.11 114.46
  A 0.66 0.66 5.2 0 1 89.46 115.00
  L 61.25 115.00
  A 0.50 0.50 45.0 0 1 60.75 114.50
  L 60.81 47.31
  A 0.50 0.50 -45.0 0 1 61.31 46.81
  L 107.18 46.81
  A 0.51 0.50 0.0 0 1 107.69 47.31
  L 107.75 61.10
  A 0.66 0.65 0.0 0 1 107.09 61.75
  L 96.46 61.75
  Q 94.87 61.75 93.54 62.62
  Q 91.98 63.64 90.25 63.61
  Q 78.28 63.45 66.72 63.56
  Q 64.55 63.58 64.25 65.73
  Q 63.60 70.48 64.16 74.18
  Q 64.63 77.27 67.68 77.25
  L 89.44 77.08
  A 0.72 0.69 -10.3 0 1 90.12 77.53
  Q 91.40 81.09 87.97 80.87
  Q 86.09 80.75 86.02 80.75
  Q 78.31 80.75 70.60 80.75
  Q 66.81 80.75 66.40 80.85
  Q 63.83 81.50 63.84 85.00
  Q 63.84 88.64 64.24 92.14
  Q 64.46 94.15 66.48 94.25
  Q 78.03 94.82 89.42 94.32
  A 0.60 0.60 82.5 0 1 90.03 94.79
  Q 90.82 98.28 88.53 98.09
  Q 87.53 98.00 87.46 98.00
  Q 77.11 98.00 66.80 98.00
  Q 64.55 98.00 64.25 100.23
  Q 63.61 104.97 64.18 108.81
  Q 64.61 111.70 67.44 111.69
  Z
  M 69.95 51.20
  A 1.16 1.16 0.0 0 0 68.79 50.04
  L 65.71 50.04
  A 1.16 1.16 0.0 0 0 64.55 51.20
  L 64.55 51.32
  A 1.16 1.16 0.0 0 0 65.71 52.48
  L 68.79 52.48
  A 1.16 1.16 0.0 0 0 69.95 51.32
  L 69.95 51.20
  Z
  M 78.6895 51.1812
  A 1.16 1.16 0.0 0 0 77.5214 50.0293
  L 74.4615 50.0507
  A 1.16 1.16 0.0 0 0 73.3096 51.2188
  L 73.3105 51.3388
  A 1.16 1.16 0.0 0 0 74.4786 52.4907
  L 77.5385 52.4693
  A 1.16 1.16 0.0 0 0 78.6904 51.3012
  L 78.6895 51.1812
  Z
  M 87.4303 51.2041
  A 1.16 1.16 0.0 0 0 86.2764 50.0380
  L 83.2164 50.0220
  A 1.16 1.16 0.0 0 0 82.0504 51.1759
  L 82.0497 51.2959
  A 1.16 1.16 0.0 0 0 83.2036 52.4620
  L 86.2636 52.4780
  A 1.16 1.16 0.0 0 0 87.4296 51.3241
  L 87.4303 51.2041
  Z"
/>
<circle fill="#89d148" cx="120.86" cy="48.66" r="1.63"/>
<rect fill="#000000" x="64.55" y="50.04" width="5.40" height="2.44" rx="1.16"/>
<rect fill="#000000" x="-2.69" y="-1.22" transform="translate(76.00,51.26) rotate(-0.4)" width="5.38" height="2.44" rx="1.16"/>
<rect fill="#000000" x="-2.69" y="-1.22" transform="translate(84.74,51.25) rotate(0.3)" width="5.38" height="2.44" rx="1.16"/>
<path fill="#000000" d="
  M 33.00 79.61
  A 3.39 3.39 0.0 0 1 29.61 83.00
  L 14.39 83.00
  A 3.39 3.39 0.0 0 1 11.00 79.61
  L 11.00 59.89
  A 3.39 3.39 0.0 0 1 14.39 56.50
  L 29.61 56.50
  A 3.39 3.39 0.0 0 1 33.00 59.89
  L 33.00 79.61
  Z
  M 30.4823 59.5852
  A 0.60 0.60 0.0 0 0 29.8812 58.9862
  L 14.0812 59.0138
  A 0.60 0.60 0.0 0 0 13.4823 59.6149
  L 13.5177 79.9148
  A 0.60 0.60 0.0 0 0 14.1188 80.5138
  L 29.9188 80.4862
  A 0.60 0.60 0.0 0 0 30.5177 79.8851
  L 30.4823 59.5852
  Z"
/>
<rect fill="#70d6f9" x="-8.50" y="-10.75" transform="translate(22.00,69.75) rotate(-0.1)" width="17.00" height="21.50" rx="0.60"/>
<rect fill="#f5c84c" x="-7.26" y="-10.74" transform="translate(45.76,69.75) rotate(-0.1)" width="14.52" height="21.48" rx="0.56"/>
<path fill="#5290db" d="
  M 125.49 116.03
  A 4.11 4.11 0.0 0 1 121.38 120.14
  L 96.86 120.14
  A 4.11 4.11 0.0 0 1 92.75 116.03
  L 92.75 68.35
  A 4.11 4.11 0.0 0 1 96.86 64.24
  L 121.38 64.24
  A 4.11 4.11 0.0 0 1 125.49 68.35
  L 125.49 116.03
  Z
  M 121.30 66.77
  Q 119.96 66.34 118.27 66.40
  Q 118.01 66.41 115.75 66.35
  Q 113.66 66.31 112.40 67.74
  Q 110.58 69.82 110.28 69.96
  Q 108.04 70.96 105.82 68.04
  Q 104.65 66.50 102.71 66.50
  L 98.12 66.50
  Q 94.74 66.50 94.75 69.84
  L 94.98 114.90
  Q 95.00 118.00 98.15 118.00
  Q 109.00 118.00 119.75 117.88
  Q 123.25 117.84 123.25 114.25
  Q 123.25 92.37 123.25 69.45
  Q 123.25 67.40 121.30 66.77
  Z"
/>
<rect fill="#70d6f9" x="-11.89" y="-4.37" transform="translate(78.40,70.37) rotate(0.1)" width="23.78" height="8.74" rx="0.42"/>
<path fill="#000000" d="
  M 121.30 66.77
  Q 123.25 67.40 123.25 69.45
  Q 123.25 92.37 123.25 114.25
  Q 123.25 117.84 119.75 117.88
  Q 109.00 118.00 98.15 118.00
  Q 95.00 118.00 94.98 114.90
  L 94.75 69.84
  Q 94.74 66.50 98.12 66.50
  L 102.71 66.50
  Q 104.65 66.50 105.82 68.04
  Q 108.04 70.96 110.28 69.96
  Q 110.58 69.82 112.40 67.74
  Q 113.66 66.31 115.75 66.35
  Q 118.01 66.41 118.27 66.40
  Q 119.96 66.34 121.30 66.77
  Z
  M 97.52 114.86
  A 0.60 0.60 89.0 0 0 98.12 115.44
  L 120.07 115.50
  A 0.68 0.68 0.0 0 0 120.75 114.82
  L 120.69 69.56
  A 0.60 0.51 -89.0 0 0 120.20 68.96
  L 115.66 68.83
  A 1.87 1.40 -63.7 0 0 114.37 69.48
  Q 108.56 76.21 103.78 69.41
  A 1.34 1.21 76.0 0 0 103.01 68.89
  Q 100.44 68.37 97.92 69.05
  A 0.68 0.66 83.2 0 0 97.43 69.69
  Q 96.93 91.86 97.52 114.86
  Z"
/>
<path fill="#edf4fc" d="
  M 97.52 114.86
  Q 96.93 91.86 97.43 69.69
  A 0.68 0.66 83.2 0 1 97.92 69.05
  Q 100.44 68.37 103.01 68.89
  A 1.34 1.21 76.0 0 1 103.78 69.41
  Q 108.56 76.21 114.37 69.48
  A 1.87 1.40 -63.7 0 1 115.66 68.83
  L 120.20 68.96
  A 0.60 0.51 -89.0 0 1 120.69 69.56
  L 120.75 114.82
  A 0.68 0.68 -45.0 0 1 120.07 115.50
  L 98.12 115.44
  A 0.60 0.60 89.0 0 1 97.52 114.86
  Z
  M 117.9506 75.6983
  A 1.16 1.16 0.0 0 0 116.8028 74.5262
  L 113.7230 74.4939
  A 1.16 1.16 0.0 0 0 112.5509 75.6417
  L 112.5494 75.7817
  A 1.16 1.16 0.0 0 0 113.6972 76.9538
  L 116.7770 76.9861
  A 1.16 1.16 0.0 0 0 117.9491 75.8383
  L 117.9506 75.6983
  Z
  M 119.0171 84.1126
  A 2.87 2.87 0.0 0 0 116.1421 81.2476
  L 101.9022 81.2724
  A 2.87 2.87 0.0 0 0 99.0372 84.1474
  L 99.0429 87.4074
  A 2.87 2.87 0.0 0 0 101.9179 90.2724
  L 116.1578 90.2476
  A 2.87 2.87 0.0 0 0 119.0228 87.3726
  L 119.0171 84.1126
  Z
  M 119.01 95.40
  A 2.85 2.85 0.0 0 0 116.16 92.55
  L 101.90 92.55
  A 2.85 2.85 0.0 0 0 99.05 95.40
  L 99.05 98.66
  A 2.85 2.85 0.0 0 0 101.90 101.51
  L 116.16 101.51
  A 2.85 2.85 0.0 0 0 119.01 98.66
  L 119.01 95.40
  Z
  M 119.02 106.86
  A 2.87 2.87 0.0 0 0 116.15 103.99
  L 101.91 103.99
  A 2.87 2.87 0.0 0 0 99.04 106.86
  L 99.04 110.10
  A 2.87 2.87 0.0 0 0 101.91 112.97
  L 116.15 112.97
  A 2.87 2.87 0.0 0 0 119.02 110.10
  L 119.02 106.86
  Z"
/>
<rect fill="#000000" x="-2.70" y="-1.23" transform="translate(115.25,75.74) rotate(0.6)" width="5.40" height="2.46" rx="1.16"/>
<path fill="#000000" d="
  M 119.0228 87.3726
  A 2.87 2.87 0.0 0 1 116.1578 90.2476
  L 101.9179 90.2724
  A 2.87 2.87 0.0 0 1 99.0429 87.4074
  L 99.0372 84.1474
  A 2.87 2.87 0.0 0 1 101.9022 81.2724
  L 116.1421 81.2476
  A 2.87 2.87 0.0 0 1 119.0171 84.1126
  L 119.0228 87.3726
  Z
  M 116.51 84.31
  A 0.56 0.56 0.0 0 0 115.95 83.75
  L 102.07 83.75
  A 0.56 0.56 0.0 0 0 101.51 84.31
  L 101.51 87.19
  A 0.56 0.56 0.0 0 0 102.07 87.75
  L 115.95 87.75
  A 0.56 0.56 0.0 0 0 116.51 87.19
  L 116.51 84.31
  Z"
/>
<rect fill="#f5c84c" x="-11.86" y="-4.28" transform="translate(78.38,87.51) rotate(0.2)" width="23.72" height="8.56" rx="0.55"/>
<rect fill="#70d6f9" x="101.51" y="83.75" width="15.00" height="4.00" rx="0.56"/>
<path fill="#edf4fc" d="
  M 52.45 101.81
  Q 35.64 101.71 19.25 101.74
  Q 17.94 101.75 12.75 102.01
  Q 8.91 102.21 6.25 101.75
  Q 4.02 101.37 3.06 99.49
  Q 2.50 98.39 2.50 95.92
  Q 2.50 92.70 2.50 89.06
  A 0.56 0.56 86.0 0 1 3.06 88.50
  L 52.44 88.50
  A 0.56 0.56 -0.0 0 1 53.00 89.06
  L 53.00 101.27
  A 0.54 0.54 0.5 0 1 52.45 101.81
  Z"
/>
<path fill="#000000" d="
  M 119.01 98.66
  A 2.85 2.85 0.0 0 1 116.16 101.51
  L 101.90 101.51
  A 2.85 2.85 0.0 0 1 99.05 98.66
  L 99.05 95.40
  A 2.85 2.85 0.0 0 1 101.90 92.55
  L 116.16 92.55
  A 2.85 2.85 0.0 0 1 119.01 95.40
  L 119.01 98.66
  Z
  M 116.61 95.70
  A 0.68 0.68 0.0 0 0 115.93 95.02
  L 102.19 95.02
  A 0.68 0.68 0.0 0 0 101.51 95.70
  L 101.51 98.32
  A 0.68 0.68 0.0 0 0 102.19 99.00
  L 115.93 99.00
  A 0.68 0.68 0.0 0 0 116.61 98.32
  L 116.61 95.70
  Z"
/>
<rect fill="#f5c84c" x="101.51" y="95.02" width="15.10" height="3.98" rx="0.68"/>
<rect fill="#fc657e" x="-11.86" y="-4.37" transform="translate(78.38,104.85) rotate(0.1)" width="23.72" height="8.74" rx="0.58"/>
<path fill="#000000" d="
  M 119.02 110.10
  A 2.87 2.87 0.0 0 1 116.15 112.97
  L 101.91 112.97
  A 2.87 2.87 0.0 0 1 99.04 110.10
  L 99.04 106.86
  A 2.87 2.87 0.0 0 1 101.91 103.99
  L 116.15 103.99
  A 2.87 2.87 0.0 0 1 119.02 106.86
  L 119.02 110.10
  Z
  M 116.4680 106.6778
  A 0.27 0.27 0.0 0 0 116.1961 106.4097
  L 101.7765 106.5104
  A 0.27 0.27 0.0 0 0 101.5084 106.7823
  L 101.5320 110.1622
  A 0.27 0.27 0.0 0 0 101.8039 110.4303
  L 116.2235 110.3296
  A 0.27 0.27 0.0 0 0 116.4916 110.0577
  L 116.4680 106.6778
  Z"
/>
<rect fill="#c7d7e5" x="-2.62" y="-5.04" transform="translate(50.37,109.54) rotate(0.2)" width="5.24" height="10.08" rx="0.28"/>
<rect fill="#fc657e" x="-7.48" y="-1.96" transform="translate(109.00,108.42) rotate(-0.4)" width="14.96" height="3.92" rx="0.27"/>
<circle fill="#f5c84c" cx="12.37" cy="109.68" r="1.63"/>
<path fill="#70d6f9" d="
  M 23.70 115.19
  Q 22.51 114.84 21.66 114.06
  A 1.35 1.20 23.3 0 1 21.26 113.20
  Q 21.18 111.65 22.75 111.70
  A 1.30 0.64 11.0 0 0 23.64 111.46
  Q 24.09 111.02 24.10 110.31
  A 1.33 0.75 79.2 0 1 24.39 109.45
  Q 25.48 108.41 26.59 109.45
  A 1.29 0.73 -79.9 0 1 26.89 110.31
  Q 26.91 111.00 27.36 111.45
  A 1.40 0.66 -7.8 0 0 28.25 111.73
  Q 29.46 111.78 29.67 112.78
  Q 29.87 113.74 29.09 114.37
  Q 28.52 114.84 27.69 114.92
  A 0.54 0.52 -2.5 0 0 27.21 115.43
  Q 27.18 116.87 26.03 117.32
  Q 25.19 117.65 24.52 117.17
  Q 23.87 116.70 24.04 115.80
  A 0.53 0.50 -76.0 0 0 23.70 115.19
  Z"
/>
<path fill="#edf4fc" d="
  M 36.54 119.71
  Q 35.15 118.95 36.57 117.53
  A 1.27 1.26 21.9 0 1 37.44 117.16
  L 52.44 117.05
  A 0.74 0.58 -5.2 0 1 53.15 117.51
  L 53.60 119.62
  A 0.57 0.53 -5.7 0 1 53.03 120.26
  Q 45.49 120.17 38.41 120.07
  Q 37.17 120.06 36.54 119.71
  Z"
/>
</svg>
