<?xml version="1.0" encoding="UTF-8" standalone="no"?>
<!DOCTYPE svg PUBLIC "-//W3C//DTD SVG 1.1//EN" "http://www.w3.org/Graphics/SVG/1.1/DTD/svg11.dtd">
<svg xmlns="http://www.w3.org/2000/svg" version="1.1" viewBox="0 0 128 128">
<g stroke-width="2.00" fill="none" stroke-linecap="butt">
<path stroke="#707475" vector-effect="non-scaling-stroke" d="
  M 79.6901 5.1188
  A 0.26 0.26 0.0 0 0 79.3224 5.1143
  L 73.7687 10.5340
  A 0.26 0.26 0.0 0 0 73.7642 10.9017
  L 79.1699 16.4412
  A 0.26 0.26 0.0 0 0 79.5376 16.4457
  L 85.0913 11.0260
  A 0.26 0.26 0.0 0 0 85.0958 10.6583
  L 79.6901 5.1188"
/>
<path stroke="#363c3d" vector-effect="non-scaling-stroke" d="
  M 76.1149 20.0141
  A 0.72 0.72 0.0 0 0 76.1149 18.9958
  L 71.2642 14.1451
  A 0.72 0.72 0.0 0 0 70.2459 14.1451
  L 69.7651 14.6259
  A 0.72 0.72 0.0 0 0 69.7651 15.6442
  L 74.6158 20.4949
  A 0.72 0.72 0.0 0 0 75.6341 20.4949
  L 76.1149 20.0141"
/>
<path stroke="#054272" vector-effect="non-scaling-stroke" d="
  M 112.94 86.06
  Q 117.11 86.15 121.32 89.11
  Q 121.80 89.45 122.42 90.14
  Q 124.40 92.36 124.10 88.86
  Q 124.00 87.76 124.00 87.13
  Q 124.17 57.77 123.80 28.41
  Q 123.74 23.60 122.42 20.82
  Q 118.86 13.36 110.60 14.50
  Q 105.71 15.18 102.96 18.44
  Q 99.98 21.98 99.98 27.25
  Q 100.00 58.88 100.00 90.51
  Q 100.00 91.50 100.70 90.80
  Q 105.63 85.91 112.94 86.06"
/>
<path stroke="#417676" vector-effect="non-scaling-stroke" d="
  M 66.02 18.60
  L 39.10 45.89
  A 0.41 0.41 39.2 0 0 39.17 46.52
  Q 42.32 48.58 44.31 51.76
  A 0.39 0.39 -38.4 0 0 44.92 51.83
  L 71.90 24.34
  A 0.59 0.58 44.7 0 0 71.89 23.52
  L 66.97 18.60
  A 0.67 0.66 44.7 0 0 66.02 18.60"
/>
<path stroke="#486680" vector-effect="non-scaling-stroke" d="
  M 9.54 52.00
  Q 10.96 52.08 12.19 53.31
  Q 26.19 67.31 40.51 81.63
  A 1.23 1.22 -21.9 0 0 41.39 82.00
  L 47.25 82.00
  A 0.67 0.65 7.4 0 0 47.89 81.52
  Q 49.27 76.36 44.70 75.86
  Q 42.23 75.59 42.18 75.58
  Q 38.93 74.73 38.25 71.50
  Q 37.45 67.74 40.02 65.63
  Q 41.59 64.33 44.95 64.02
  Q 48.61 63.69 50.25 64.00
  Q 57.07 65.28 56.08 58.74
  A 0.53 0.46 83.4 0 1 56.49 58.14
  L 59.24 57.96
  A 0.67 0.59 81.0 0 1 59.87 58.48
  Q 60.97 63.23 58.18 65.98
  Q 56.40 67.73 52.67 67.93
  Q 49.05 68.12 44.62 67.93
  Q 42.65 67.84 42.12 69.75
  Q 41.79 70.96 42.96 71.60
  Q 43.51 71.90 44.74 71.93
  Q 52.66 72.14 51.96 81.03
  A 0.90 0.90 2.3 0 0 52.86 82.00
  L 59.05 82.00
  A 1.02 1.02 84.6 0 0 60.05 80.79
  Q 59.20 76.18 62.83 75.98
  Q 64.56 75.89 64.66 75.88
  Q 66.54 75.66 68.44 75.68
  A 0.87 0.69 8.8 0 0 69.20 75.25
  L 71.35 70.12
  A 1.21 1.05 37.3 0 0 71.11 68.95
  L 67.14 64.47
  Q 65.69 62.84 67.09 61.44
  L 75.38 53.14
  Q 76.83 51.69 78.51 53.18
  L 83.06 57.23
  A 0.92 0.71 51.4 0 0 83.91 57.44
  L 89.07 55.26
  A 0.99 0.75 85.1 0 0 89.55 54.50
  Q 89.88 51.38 90.24 48.28
  Q 90.54 45.73 94.22 46.10
  A 1.60 1.55 2.9 0 0 95.97 44.56
  L 95.99 38.51
  A 0.52 0.51 0.0 0 0 95.47 38.00
  L 64.63 38.00
  A 1.27 1.22 -66.8 0 0 63.75 38.37
  L 45.27 57.11
  Q 44.65 57.73 43.83 58.09
  Q 36.86 61.11 30.23 63.64
  Q 29.26 64.00 28.61 63.84
  Q 27.56 63.58 27.31 62.59
  Q 27.12 61.85 27.63 60.47
  Q 29.41 55.63 31.35 50.86
  Q 32.95 46.91 35.18 44.29
  Q 37.60 41.46 40.59 38.83
  Q 41.54 38.00 40.28 38.00
  L 12.87 38.00
  A 0.87 0.87 0.0 0 0 12.00 38.87
  Q 12.00 43.24 12.00 47.04
  Q 12.00 47.62 11.72 47.85
  Q 11.35 48.16 10.75 48.04"
/>
<path stroke="#3a5d80" vector-effect="non-scaling-stroke" d="
  M 10.75 48.04
  L 8.68 47.91
  A 0.59 0.56 -88.5 0 1 8.15 47.32
  L 8.17 36.11
  Q 8.18 34.00 10.48 34.00
  L 44.15 34.00
  A 2.35 2.31 22.0 0 0 45.81 33.31
  L 48.52 30.61
  Q 49.13 30.00 48.27 30.00
  L 4.68 30.06
  A 0.68 0.68 0.0 0 0 4.00 30.74
  L 4.06 113.19
  A 0.71 0.68 -81.6 0 0 4.54 113.86
  Q 6.01 114.30 7.47 113.85
  A 0.71 0.66 82.4 0 0 7.94 113.18
  Q 8.05 84.59 8.00 56.00
  Q 8.00 53.05 9.54 52.00"
/>
<path stroke="#82c3ff" vector-effect="non-scaling-stroke" d="
  M 10.75 48.04
  Q 9.59 49.83 9.54 52.00"
/>
<path stroke="#3a5d80" vector-effect="non-scaling-stroke" d="
  M 71.54 30.50
  L 68.43 33.48
  Q 67.88 34.00 68.67 34.00
  Q 80.58 34.00 92.42 34.00
  Q 95.06 34.00 95.07 34.00
  Q 96.40 33.51 95.72 30.52
  A 0.65 0.64 83.9 0 0 95.09 30.01
  L 72.44 30.17
  A 1.45 1.06 16.1 0 0 71.54 30.50"
/>
<path stroke="#7d5950" vector-effect="non-scaling-stroke" d="
  M 37.05 50.21
  A 0.85 0.82 27.3 0 0 35.83 50.58
  L 33.05 57.36
  Q 32.58 58.51 33.75 58.02
  L 39.76 55.48
  A 1.49 1.47 -27.3 0 0 40.46 53.34
  Q 39.42 51.70 37.05 50.21"
/>
<path stroke="#803b3b" vector-effect="non-scaling-stroke" d="
  M 64.84 79.87
  Q 63.75 80.72 64.05 81.52
  A 0.89 0.66 -7.4 0 0 64.81 81.95
  L 77.38 82.00
  A 0.87 0.85 -84.2 0 0 78.22 81.30
  Q 80.90 67.27 95.45 64.15
  A 0.67 0.66 -6.3 0 0 95.99 63.49
  L 95.95 50.81
  A 0.79 0.74 -80.7 0 0 95.48 50.10
  Q 93.87 49.47 93.87 51.50
  Q 93.87 53.89 93.39 56.94
  A 2.43 2.18 -8.4 0 1 91.94 58.69
  L 84.23 61.83
  A 2.33 1.96 -33.3 0 1 81.96 61.56
  L 77.48 57.61
  A 0.91 0.87 43.3 0 0 76.26 57.62
  L 71.67 62.20
  A 0.95 0.93 46.8 0 0 71.64 63.49
  L 75.31 67.62
  Q 76.43 68.89 75.70 70.63
  L 72.63 77.97
  A 2.32 1.67 -76.5 0 1 70.99 79.38
  L 65.19 79.76
  A 0.70 0.33 7.5 0 0 64.84 79.87"
/>
<path stroke="#7f6637" vector-effect="non-scaling-stroke" d="
  M 76.53 123.40
  L 12.78 59.53
  Q 12.00 58.75 12.00 59.85
  L 12.00 123.08
  A 0.92 0.92 87.8 0 0 12.92 124.00
  L 76.28 124.00
  Q 77.13 124.00 76.53 123.40"
/>
<path stroke="#486680" vector-effect="non-scaling-stroke" d="
  M 85.62 74.13
  Q 83.20 77.16 82.41 81.49
  A 0.44 0.43 5.0 0 0 82.84 82.00
  L 95.34 82.00
  A 0.66 0.66 -45.0 0 0 96.00 81.34
  L 96.00 69.04
  A 0.56 0.55 -6.3 0 0 95.32 68.50
  Q 89.04 69.85 85.62 74.13"
/>
<path stroke="#486680" vector-effect="non-scaling-stroke" d="
  M 45.45 86.57
  L 64.23 105.36
  A 2.19 2.17 67.3 0 0 65.77 106.00
  L 95.94 105.94
  A 0.48 0.46 89.4 0 0 96.40 105.45
  L 96.04 86.84
  A 0.86 0.82 89.3 0 0 95.22 86.00
  L 45.69 86.00
  Q 44.88 86.00 45.45 86.57"
/>
<path stroke="#3a5c73" vector-effect="non-scaling-stroke" d="
  M 123.81 102.03
  A 11.82 11.82 0.0 0 0 111.99 90.21
  A 11.82 11.82 0.0 0 0 100.17 102.03
  A 11.82 11.82 0.0 0 0 111.99 113.85
  A 11.82 11.82 0.0 0 0 123.81 102.03"
/>
<path stroke="#3a5d80" vector-effect="non-scaling-stroke" d="
  M 97.56 110.17
  L 69.93 110.17
  Q 69.41 110.17 69.70 110.62
  Q 70.60 112.05 71.92 113.04
  Q 73.20 114.00 75.35 114.00
  Q 87.28 114.00 100.46 114.00
  Q 101.05 114.00 100.71 113.55
  L 98.45 110.51
  A 1.21 0.73 -10.1 0 0 97.56 110.17"
/>
<path stroke="#486680" vector-effect="non-scaling-stroke" d="
  M 59.9918 50.5057
  A 0.52 0.52 0.0 0 0 59.4655 49.9921
  L 56.5057 50.0282
  A 0.52 0.52 0.0 0 0 55.9921 50.5545
  L 56.0282 53.5143
  A 0.52 0.52 0.0 0 0 56.5545 54.0279
  L 59.5143 53.9918
  A 0.52 0.52 0.0 0 0 60.0279 53.4655
  L 59.9918 50.5057"
/>
<path stroke="#7f6637" vector-effect="non-scaling-stroke" d="
  M 18.17 78.64
  Q 17.87 95.41 17.99 112.19
  Q 17.99 112.28 17.88 114.30
  Q 17.66 118.33 21.70 118.11
  Q 23.69 118.01 23.80 118.01
  Q 40.92 118.17 58.03 117.77
  Q 58.88 117.75 59.32 117.33
  Q 59.93 116.75 59.91 115.97
  Q 59.88 115.26 59.03 114.38
  Q 40.62 95.47 21.79 76.96
  Q 20.12 75.32 18.90 76.47
  Q 18.19 77.13 18.17 78.64"
/>
<path stroke="#486680" vector-effect="non-scaling-stroke" d="
  M 44.55 105.43
  L 22.55 83.43
  Q 22.00 82.87 22.00 83.65
  L 22.06 105.45
  A 0.49 0.49 0.0 0 0 22.55 105.94
  L 44.32 105.99
  Q 45.12 106.00 44.55 105.43"
/>
<path stroke="#3a5d80" vector-effect="non-scaling-stroke" d="
  M 48.81 110.18
  L 22.64 110.01
  A 0.63 0.61 -0.0 0 0 22.01 110.62
  L 22.03 113.45
  A 0.54 0.51 -0.5 0 0 22.57 113.95
  L 52.25 113.77
  Q 52.81 113.76 52.42 113.36
  L 49.69 110.53
  A 1.29 1.12 -19.3 0 0 48.81 110.18"
/>
<path stroke="#486680" vector-effect="non-scaling-stroke" d="
  M 76.0090 90.2805
  A 0.27 0.27 0.0 0 0 75.7404 90.0091
  L 72.2805 89.9910
  A 0.27 0.27 0.0 0 0 72.0091 90.2596
  L 71.9910 93.7195
  A 0.27 0.27 0.0 0 0 72.2596 93.9909
  L 75.7195 94.0090
  A 0.27 0.27 0.0 0 0 75.9909 93.7404
  L 76.0090 90.2805"
/>
<path stroke="#486680" vector-effect="non-scaling-stroke" d="
  M 83.9934 90.4091
  A 0.43 0.43 0.0 0 0 83.5590 89.9837
  L 80.4191 90.0166
  A 0.43 0.43 0.0 0 0 79.9937 90.4510
  L 80.0266 93.5909
  A 0.43 0.43 0.0 0 0 80.4610 94.0163
  L 83.6009 93.9834
  A 0.43 0.43 0.0 0 0 84.0263 93.5490
  L 83.9934 90.4091"
/>
<path stroke="#486680" vector-effect="non-scaling-stroke" d="
  M 91.9934 90.4091
  A 0.43 0.43 0.0 0 0 91.5590 89.9837
  L 88.4191 90.0166
  A 0.43 0.43 0.0 0 0 87.9937 90.4510
  L 88.0266 93.5909
  A 0.43 0.43 0.0 0 0 88.4610 94.0163
  L 91.6009 93.9834
  A 0.43 0.43 0.0 0 0 92.0263 93.5490
  L 91.9934 90.4091"
/>
<path stroke="#486680" vector-effect="non-scaling-stroke" d="
  M 92.00 98.27
  A 0.27 0.27 0.0 0 0 91.73 98.00
  L 66.27 98.00
  A 0.27 0.27 0.0 0 0 66.00 98.27
  L 66.00 101.73
  A 0.27 0.27 0.0 0 0 66.27 102.00
  L 91.73 102.00
  A 0.27 0.27 0.0 0 0 92.00 101.73
  L 92.00 98.27"
/>
<path stroke="#3a5c73" vector-effect="non-scaling-stroke" d="
  M 119.86 102.01
  A 7.86 7.86 0.0 0 0 112.00 94.15
  A 7.86 7.86 0.0 0 0 104.14 102.01
  A 7.86 7.86 0.0 0 0 112.00 109.87
  A 7.86 7.86 0.0 0 0 119.86 102.01"
/>
<path stroke="#707475" vector-effect="non-scaling-stroke" d="
  M 115.91 101.99
  A 3.91 3.91 0.0 0 0 112.00 98.08
  A 3.91 3.91 0.0 0 0 108.09 101.99
  A 3.91 3.91 0.0 0 0 112.00 105.90
  A 3.91 3.91 0.0 0 0 115.91 101.99"
/>
</g>
<path fill="#000000" d="
  M 128.00 25.06
  L 128.00 103.31
  Q 125.06 118.35 109.50 118.15
  Q 93.66 117.95 77.86 118.06
  Q 76.51 118.07 77.55 118.93
  Q 80.50 121.35 82.98 124.22
  Q 83.90 125.28 83.86 126.14
  Q 83.81 127.46 82.19 128.00
  L 11.69 128.00
  Q 10.04 128.01 8.73 127.22
  A 1.01 0.81 -78.0 0 1 8.33 126.43
  L 8.11 120.06
  Q 8.01 117.00 4.80 117.68
  Q 0.24 118.65 0.00 114.94
  L 0.00 27.94
  Q 0.78 26.00 3.75 26.00
  Q 27.38 26.00 52.10 26.00
  A 2.18 2.17 -67.7 0 0 53.65 25.35
  L 77.82 0.80
  Q 79.19 -0.58 80.64 0.71
  Q 83.74 3.49 86.94 6.77
  Q 89.29 9.18 89.41 9.36
  Q 90.58 11.21 88.59 13.08
  Q 87.88 13.75 87.81 13.83
  Q 82.09 19.70 76.63 25.12
  Q 75.75 26.00 76.99 26.00
  L 95.14 26.00
  A 1.05 1.05 -89.4 0 0 96.19 24.97
  Q 96.34 19.75 99.94 15.68
  Q 103.91 11.19 109.33 10.31
  Q 114.47 9.48 119.36 11.99
  Q 126.68 15.74 128.00 25.06
  Z
  M 79.6901 5.1188
  A 0.26 0.26 0.0 0 0 79.3224 5.1143
  L 73.7687 10.5340
  A 0.26 0.26 0.0 0 0 73.7642 10.9017
  L 79.1699 16.4412
  A 0.26 0.26 0.0 0 0 79.5376 16.4457
  L 85.0913 11.0260
  A 0.26 0.26 0.0 0 0 85.0958 10.6583
  L 79.6901 5.1188
  Z
  M 76.1149 20.0141
  A 0.72 0.72 0.0 0 0 76.1149 18.9958
  L 71.2642 14.1451
  A 0.72 0.72 0.0 0 0 70.2459 14.1451
  L 69.7651 14.6259
  A 0.72 0.72 0.0 0 0 69.7651 15.6442
  L 74.6158 20.4949
  A 0.72 0.72 0.0 0 0 75.6341 20.4949
  L 76.1149 20.0141
  Z
  M 112.94 86.06
  Q 117.11 86.15 121.32 89.11
  Q 121.80 89.45 122.42 90.14
  Q 124.40 92.36 124.10 88.86
  Q 124.00 87.76 124.00 87.13
  Q 124.17 57.77 123.80 28.41
  Q 123.74 23.60 122.42 20.82
  Q 118.86 13.36 110.60 14.50
  Q 105.71 15.18 102.96 18.44
  Q 99.98 21.98 99.98 27.25
  Q 100.00 58.88 100.00 90.51
  Q 100.00 91.50 100.70 90.80
  Q 105.63 85.91 112.94 86.06
  Z
  M 66.02 18.60
  L 39.10 45.89
  A 0.41 0.41 39.2 0 0 39.17 46.52
  Q 42.32 48.58 44.31 51.76
  A 0.39 0.39 -38.4 0 0 44.92 51.83
  L 71.90 24.34
  A 0.59 0.58 44.7 0 0 71.89 23.52
  L 66.97 18.60
  A 0.67 0.66 44.7 0 0 66.02 18.60
  Z
  M 9.54 52.00
  Q 10.96 52.08 12.19 53.31
  Q 26.19 67.31 40.51 81.63
  A 1.23 1.22 -21.9 0 0 41.39 82.00
  L 47.25 82.00
  A 0.67 0.65 7.4 0 0 47.89 81.52
  Q 49.27 76.36 44.70 75.86
  Q 42.23 75.59 42.18 75.58
  Q 38.93 74.73 38.25 71.50
  Q 37.45 67.74 40.02 65.63
  Q 41.59 64.33 44.95 64.02
  Q 48.61 63.69 50.25 64.00
  Q 57.07 65.28 56.08 58.74
  A 0.53 0.46 83.4 0 1 56.49 58.14
  L 59.24 57.96
  A 0.67 0.59 81.0 0 1 59.87 58.48
  Q 60.97 63.23 58.18 65.98
  Q 56.40 67.73 52.67 67.93
  Q 49.05 68.12 44.62 67.93
  Q 42.65 67.84 42.12 69.75
  Q 41.79 70.96 42.96 71.60
  Q 43.51 71.90 44.74 71.93
  Q 52.66 72.14 51.96 81.03
  A 0.90 0.90 2.3 0 0 52.86 82.00
  L 59.05 82.00
  A 1.02 1.02 84.6 0 0 60.05 80.79
  Q 59.20 76.18 62.83 75.98
  Q 64.56 75.89 64.66 75.88
  Q 66.54 75.66 68.44 75.68
  A 0.87 0.69 8.8 0 0 69.20 75.25
  L 71.35 70.12
  A 1.21 1.05 37.3 0 0 71.11 68.95
  L 67.14 64.47
  Q 65.69 62.84 67.09 61.44
  L 75.38 53.14
  Q 76.83 51.69 78.51 53.18
  L 83.06 57.23
  A 0.92 0.71 51.4 0 0 83.91 57.44
  L 89.07 55.26
  A 0.99 0.75 85.1 0 0 89.55 54.50
  Q 89.88 51.38 90.24 48.28
  Q 90.54 45.73 94.22 46.10
  A 1.60 1.55 2.9 0 0 95.97 44.56
  L 95.99 38.51
  A 0.52 0.51 0.0 0 0 95.47 38.00
  L 64.63 38.00
  A 1.27 1.22 -66.8 0 0 63.75 38.37
  L 45.27 57.11
  Q 44.65 57.73 43.83 58.09
  Q 36.86 61.11 30.23 63.64
  Q 29.26 64.00 28.61 63.84
  Q 27.56 63.58 27.31 62.59
  Q 27.12 61.85 27.63 60.47
  Q 29.41 55.63 31.35 50.86
  Q 32.95 46.91 35.18 44.29
  Q 37.60 41.46 40.59 38.83
  Q 41.54 38.00 40.28 38.00
  L 12.87 38.00
  A 0.87 0.87 0.0 0 0 12.00 38.87
  Q 12.00 43.24 12.00 47.04
  Q 12.00 47.62 11.72 47.85
  Q 11.35 48.16 10.75 48.04
  L 8.68 47.91
  A 0.59 0.56 -88.5 0 1 8.15 47.32
  L 8.17 36.11
  Q 8.18 34.00 10.48 34.00
  L 44.15 34.00
  A 2.35 2.31 22.0 0 0 45.81 33.31
  L 48.52 30.61
  Q 49.13 30.00 48.27 30.00
  L 4.68 30.06
  A 0.68 0.68 0.0 0 0 4.00 30.74
  L 4.06 113.19
  A 0.71 0.68 -81.6 0 0 4.54 113.86
  Q 6.01 114.30 7.47 113.85
  A 0.71 0.66 82.4 0 0 7.94 113.18
  Q 8.05 84.59 8.00 56.00
  Q 8.00 53.05 9.54 52.00
  Z
  M 71.54 30.50
  L 68.43 33.48
  Q 67.88 34.00 68.67 34.00
  Q 80.58 34.00 92.42 34.00
  Q 95.06 34.00 95.07 34.00
  Q 96.40 33.51 95.72 30.52
  A 0.65 0.64 83.9 0 0 95.09 30.01
  L 72.44 30.17
  A 1.45 1.06 16.1 0 0 71.54 30.50
  Z
  M 37.05 50.21
  A 0.85 0.82 27.3 0 0 35.83 50.58
  L 33.05 57.36
  Q 32.58 58.51 33.75 58.02
  L 39.76 55.48
  A 1.49 1.47 -27.3 0 0 40.46 53.34
  Q 39.42 51.70 37.05 50.21
  Z
  M 64.84 79.87
  Q 63.75 80.72 64.05 81.52
  A 0.89 0.66 -7.4 0 0 64.81 81.95
  L 77.38 82.00
  A 0.87 0.85 -84.2 0 0 78.22 81.30
  Q 80.90 67.27 95.45 64.15
  A 0.67 0.66 -6.3 0 0 95.99 63.49
  L 95.95 50.81
  A 0.79 0.74 -80.7 0 0 95.48 50.10
  Q 93.87 49.47 93.87 51.50
  Q 93.87 53.89 93.39 56.94
  A 2.43 2.18 -8.4 0 1 91.94 58.69
  L 84.23 61.83
  A 2.33 1.96 -33.3 0 1 81.96 61.56
  L 77.48 57.61
  A 0.91 0.87 43.3 0 0 76.26 57.62
  L 71.67 62.20
  A 0.95 0.93 46.8 0 0 71.64 63.49
  L 75.31 67.62
  Q 76.43 68.89 75.70 70.63
  L 72.63 77.97
  A 2.32 1.67 -76.5 0 1 70.99 79.38
  L 65.19 79.76
  A 0.70 0.33 7.5 0 0 64.84 79.87
  Z
  M 76.53 123.40
  L 12.78 59.53
  Q 12.00 58.75 12.00 59.85
  L 12.00 123.08
  A 0.92 0.92 87.8 0 0 12.92 124.00
  L 76.28 124.00
  Q 77.13 124.00 76.53 123.40
  Z
  M 85.62 74.13
  Q 83.20 77.16 82.41 81.49
  A 0.44 0.43 5.0 0 0 82.84 82.00
  L 95.34 82.00
  A 0.66 0.66 -45.0 0 0 96.00 81.34
  L 96.00 69.04
  A 0.56 0.55 -6.3 0 0 95.32 68.50
  Q 89.04 69.85 85.62 74.13
  Z
  M 45.45 86.57
  L 64.23 105.36
  A 2.19 2.17 67.3 0 0 65.77 106.00
  L 95.94 105.94
  A 0.48 0.46 89.4 0 0 96.40 105.45
  L 96.04 86.84
  A 0.86 0.82 89.3 0 0 95.22 86.00
  L 45.69 86.00
  Q 44.88 86.00 45.45 86.57
  Z
  M 123.81 102.03
  A 11.82 11.82 0.0 0 0 111.99 90.21
  A 11.82 11.82 0.0 0 0 100.17 102.03
  A 11.82 11.82 0.0 0 0 111.99 113.85
  A 11.82 11.82 0.0 0 0 123.81 102.03
  Z
  M 97.56 110.17
  L 69.93 110.17
  Q 69.41 110.17 69.70 110.62
  Q 70.60 112.05 71.92 113.04
  Q 73.20 114.00 75.35 114.00
  Q 87.28 114.00 100.46 114.00
  Q 101.05 114.00 100.71 113.55
  L 98.45 110.51
  A 1.21 0.73 -10.1 0 0 97.56 110.17
  Z"
/>
<rect fill="#e0e7ea" x="-4.14" y="-4.13" transform="translate(79.43,10.78) rotate(-44.3)" width="8.28" height="8.26" rx="0.26"/>
<rect fill="#6c787a" x="-4.15" y="-1.06" transform="translate(72.94,17.32) rotate(45.0)" width="8.30" height="2.12" rx="0.72"/>
<path fill="#0984e3" d="
  M 112.94 86.06
  Q 105.63 85.91 100.70 90.80
  Q 100.00 91.50 100.00 90.51
  Q 100.00 58.88 99.98 27.25
  Q 99.98 21.98 102.96 18.44
  Q 105.71 15.18 110.60 14.50
  Q 118.86 13.36 122.42 20.82
  Q 123.74 23.60 123.80 28.41
  Q 124.17 57.77 124.00 87.13
  Q 124.00 87.76 124.10 88.86
  Q 124.40 92.36 122.42 90.14
  Q 121.80 89.45 121.32 89.11
  Q 117.11 86.15 112.94 86.06
  Z"
/>
<path fill="#81ecec" d="
  M 66.02 18.60
  A 0.67 0.66 44.7 0 1 66.97 18.60
  L 71.89 23.52
  A 0.59 0.58 44.7 0 1 71.90 24.34
  L 44.92 51.83
  A 0.39 0.39 -38.4 0 1 44.31 51.76
  Q 42.32 48.58 39.17 46.52
  A 0.41 0.41 39.2 0 1 39.10 45.89
  L 66.02 18.60
  Z"
/>
<path fill="#74b9ff" d="
  M 10.75 48.04
  Q 9.59 49.83 9.54 52.00
  Q 8.00 53.05 8.00 56.00
  Q 8.05 84.59 7.94 113.18
  A 0.71 0.66 82.4 0 1 7.47 113.85
  Q 6.01 114.30 4.54 113.86
  A 0.71 0.68 -81.6 0 1 4.06 113.19
  L 4.00 30.74
  A 0.68 0.68 45.0 0 1 4.68 30.06
  L 48.27 30.00
  Q 49.13 30.00 48.52 30.61
  L 45.81 33.31
  A 2.35 2.31 22.0 0 1 44.15 34.00
  L 10.48 34.00
  Q 8.18 34.00 8.17 36.11
  L 8.15 47.32
  A 0.59 0.56 -88.5 0 0 8.68 47.91
  L 10.75 48.04
  Z"
/>
<path fill="#74b9ff" d="
  M 72.44 30.17
  L 95.09 30.01
  A 0.65 0.64 83.9 0 1 95.72 30.52
  Q 96.40 33.51 95.07 34.00
  Q 95.06 34.00 92.42 34.00
  Q 80.58 34.00 68.67 34.00
  Q 67.88 34.00 68.43 33.48
  L 71.54 30.50
  A 1.45 1.06 16.1 0 1 72.44 30.17
  Z"
/>
<path fill="#8fccff" d="
  M 9.54 52.00
  Q 9.59 49.83 10.75 48.04
  Q 11.35 48.16 11.72 47.85
  Q 12.00 47.62 12.00 47.04
  Q 12.00 43.24 12.00 38.87
  A 0.87 0.87 -2.7 0 1 12.87 38.00
  L 40.28 38.00
  Q 41.54 38.00 40.59 38.83
  Q 37.60 41.46 35.18 44.29
  Q 32.95 46.91 31.35 50.86
  Q 29.41 55.63 27.63 60.47
  Q 27.12 61.85 27.31 62.59
  Q 27.56 63.58 28.61 63.84
  Q 29.26 64.00 30.23 63.64
  Q 36.86 61.11 43.83 58.09
  Q 44.65 57.73 45.27 57.11
  L 63.75 38.37
  A 1.27 1.22 -66.8 0 1 64.63 38.00
  L 95.47 38.00
  A 0.52 0.51 -0.0 0 1 95.99 38.51
  L 95.97 44.56
  A 1.60 1.55 2.9 0 1 94.22 46.10
  Q 90.54 45.73 90.24 48.28
  Q 89.88 51.38 89.55 54.50
  A 0.99 0.75 85.1 0 1 89.07 55.26
  L 83.91 57.44
  A 0.92 0.71 51.4 0 1 83.06 57.23
  L 78.51 53.18
  Q 76.83 51.69 75.38 53.14
  L 67.09 61.44
  Q 65.69 62.84 67.14 64.47
  L 71.11 68.95
  A 1.21 1.05 37.3 0 1 71.35 70.12
  L 69.20 75.25
  A 0.87 0.69 8.8 0 1 68.44 75.68
  Q 66.54 75.66 64.66 75.88
  Q 64.56 75.89 62.83 75.98
  Q 59.20 76.18 60.05 80.79
  A 1.02 1.02 84.6 0 1 59.05 82.00
  L 52.86 82.00
  A 0.90 0.90 2.3 0 1 51.96 81.03
  Q 52.66 72.14 44.74 71.93
  Q 43.51 71.90 42.96 71.60
  Q 41.79 70.96 42.12 69.75
  Q 42.65 67.84 44.62 67.93
  Q 49.05 68.12 52.67 67.93
  Q 56.40 67.73 58.18 65.98
  Q 60.97 63.23 59.87 58.48
  A 0.67 0.59 81.0 0 0 59.24 57.96
  L 56.49 58.14
  A 0.53 0.46 83.4 0 0 56.08 58.74
  Q 57.07 65.28 50.25 64.00
  Q 48.61 63.69 44.95 64.02
  Q 41.59 64.33 40.02 65.63
  Q 37.45 67.74 38.25 71.50
  Q 38.93 74.73 42.18 75.58
  Q 42.23 75.59 44.70 75.86
  Q 49.27 76.36 47.89 81.52
  A 0.67 0.65 7.4 0 1 47.25 82.00
  L 41.39 82.00
  A 1.23 1.22 -21.9 0 1 40.51 81.63
  Q 26.19 67.31 12.19 53.31
  Q 10.96 52.08 9.54 52.00
  Z
  M 59.9918 50.5057
  A 0.52 0.52 0.0 0 0 59.4655 49.9921
  L 56.5057 50.0282
  A 0.52 0.52 0.0 0 0 55.9921 50.5545
  L 56.0282 53.5143
  A 0.52 0.52 0.0 0 0 56.5545 54.0279
  L 59.5143 53.9918
  A 0.52 0.52 0.0 0 0 60.0279 53.4655
  L 59.9918 50.5057
  Z"
/>
<path fill="#fab1a0" d="
  M 37.05 50.21
  Q 39.42 51.70 40.46 53.34
  A 1.49 1.47 -27.3 0 1 39.76 55.48
  L 33.75 58.02
  Q 32.58 58.51 33.05 57.36
  L 35.83 50.58
  A 0.85 0.82 27.3 0 1 37.05 50.21
  Z"
/>
<rect fill="#000000" x="-2.00" y="-2.00" transform="translate(58.01,52.01) rotate(-0.7)" width="4.00" height="4.00" rx="0.52"/>
<path fill="#ff7675" d="
  M 64.84 79.87
  A 0.70 0.33 7.5 0 1 65.19 79.76
  L 70.99 79.38
  A 2.32 1.67 -76.5 0 0 72.63 77.97
  L 75.70 70.63
  Q 76.43 68.89 75.31 67.62
  L 71.64 63.49
  A 0.95 0.93 46.8 0 1 71.67 62.20
  L 76.26 57.62
  A 0.91 0.87 43.3 0 1 77.48 57.61
  L 81.96 61.56
  A 2.33 1.96 -33.3 0 0 84.23 61.83
  L 91.94 58.69
  A 2.43 2.18 -8.4 0 0 93.39 56.94
  Q 93.87 53.89 93.87 51.50
  Q 93.87 49.47 95.48 50.10
  A 0.79 0.74 -80.7 0 1 95.95 50.81
  L 95.99 63.49
  A 0.67 0.66 -6.3 0 1 95.45 64.15
  Q 80.90 67.27 78.22 81.30
  A 0.87 0.85 -84.2 0 1 77.38 82.00
  L 64.81 81.95
  A 0.89 0.66 -7.4 0 1 64.05 81.52
  Q 63.75 80.72 64.84 79.87
  Z"
/>
<path fill="#fdcb6e" d="
  M 76.53 123.40
  Q 77.13 124.00 76.28 124.00
  L 12.92 124.00
  A 0.92 0.92 -90.0 0 1 12.00 123.08
  L 12.00 59.85
  Q 12.00 58.75 12.78 59.53
  L 76.53 123.40
  Z
  M 18.17 78.64
  Q 17.87 95.41 17.99 112.19
  Q 17.99 112.28 17.88 114.30
  Q 17.66 118.33 21.70 118.11
  Q 23.69 118.01 23.80 118.01
  Q 40.92 118.17 58.03 117.77
  Q 58.88 117.75 59.32 117.33
  Q 59.93 116.75 59.91 115.97
  Q 59.88 115.26 59.03 114.38
  Q 40.62 95.47 21.79 76.96
  Q 20.12 75.32 18.90 76.47
  Q 18.19 77.13 18.17 78.64
  Z"
/>
<path fill="#8fccff" d="
  M 85.62 74.13
  Q 89.04 69.85 95.32 68.50
  A 0.56 0.55 -6.3 0 1 96.00 69.04
  L 96.00 81.34
  A 0.66 0.66 -45.0 0 1 95.34 82.00
  L 82.84 82.00
  A 0.44 0.43 5.0 0 1 82.41 81.49
  Q 83.20 77.16 85.62 74.13
  Z"
/>
<path fill="#000000" d="
  M 18.90 76.47
  Q 20.12 75.32 21.79 76.96
  Q 40.62 95.47 59.03 114.38
  Q 59.88 115.26 59.91 115.97
  Q 59.93 116.75 59.32 117.33
  Q 58.88 117.75 58.03 117.77
  Q 40.92 118.17 23.80 118.01
  Q 23.69 118.01 21.70 118.11
  Q 17.66 118.33 17.88 114.30
  Q 17.99 112.28 17.99 112.19
  Q 17.87 95.41 18.17 78.64
  Q 18.19 77.13 18.90 76.47
  Z
  M 44.55 105.43
  L 22.55 83.43
  Q 22.00 82.87 22.00 83.65
  L 22.06 105.45
  A 0.49 0.49 0.0 0 0 22.55 105.94
  L 44.32 105.99
  Q 45.12 106.00 44.55 105.43
  Z
  M 48.81 110.18
  L 22.64 110.01
  A 0.63 0.61 -0.0 0 0 22.01 110.62
  L 22.03 113.45
  A 0.54 0.51 -0.5 0 0 22.57 113.95
  L 52.25 113.77
  Q 52.81 113.76 52.42 113.36
  L 49.69 110.53
  A 1.29 1.12 -19.3 0 0 48.81 110.18
  Z"
/>
<path fill="#8fccff" d="
  M 44.55 105.43
  Q 45.12 106.00 44.32 105.99
  L 22.55 105.94
  A 0.49 0.49 -1.2 0 1 22.06 105.45
  L 22.00 83.65
  Q 22.00 82.87 22.55 83.43
  L 44.55 105.43
  Z"
/>
<path fill="#8fccff" d="
  M 45.45 86.57
  Q 44.88 86.00 45.69 86.00
  L 95.22 86.00
  A 0.86 0.82 89.3 0 1 96.04 86.84
  L 96.40 105.45
  A 0.48 0.46 89.4 0 1 95.94 105.94
  L 65.77 106.00
  A 2.19 2.17 67.3 0 1 64.23 105.36
  L 45.45 86.57
  Z
  M 76.0090 90.2805
  A 0.27 0.27 0.0 0 0 75.7404 90.0091
  L 72.2805 89.9910
  A 0.27 0.27 0.0 0 0 72.0091 90.2596
  L 71.9910 93.7195
  A 0.27 0.27 0.0 0 0 72.2596 93.9909
  L 75.7195 94.0090
  A 0.27 0.27 0.0 0 0 75.9909 93.7404
  L 76.0090 90.2805
  Z
  M 83.9934 90.4091
  A 0.43 0.43 0.0 0 0 83.5590 89.9837
  L 80.4191 90.0166
  A 0.43 0.43 0.0 0 0 79.9937 90.4510
  L 80.0266 93.5909
  A 0.43 0.43 0.0 0 0 80.4610 94.0163
  L 83.6009 93.9834
  A 0.43 0.43 0.0 0 0 84.0263 93.5490
  L 83.9934 90.4091
  Z
  M 91.9934 90.4091
  A 0.43 0.43 0.0 0 0 91.5590 89.9837
  L 88.4191 90.0166
  A 0.43 0.43 0.0 0 0 87.9937 90.4510
  L 88.0266 93.5909
  A 0.43 0.43 0.0 0 0 88.4610 94.0163
  L 91.6009 93.9834
  A 0.43 0.43 0.0 0 0 92.0263 93.5490
  L 91.9934 90.4091
  Z
  M 92.00 98.27
  A 0.27 0.27 0.0 0 0 91.73 98.00
  L 66.27 98.00
  A 0.27 0.27 0.0 0 0 66.00 98.27
  L 66.00 101.73
  A 0.27 0.27 0.0 0 0 66.27 102.00
  L 91.73 102.00
  A 0.27 0.27 0.0 0 0 92.00 101.73
  L 92.00 98.27
  Z"
/>
<rect fill="#000000" x="-2.00" y="-2.00" transform="translate(74.00,92.00) rotate(0.3)" width="4.00" height="4.00" rx="0.27"/>
<rect fill="#000000" x="-2.00" y="-2.00" transform="translate(82.01,92.00) rotate(-0.6)" width="4.00" height="4.00" rx="0.43"/>
<rect fill="#000000" x="-2.00" y="-2.00" transform="translate(90.01,92.00) rotate(-0.6)" width="4.00" height="4.00" rx="0.43"/>
<path fill="#73b7e5" d="
  M 123.81 102.03
  A 11.82 11.82 0.0 0 1 111.99 113.85
  A 11.82 11.82 0.0 0 1 100.17 102.03
  A 11.82 11.82 0.0 0 1 111.99 90.21
  A 11.82 11.82 0.0 0 1 123.81 102.03
  Z
  M 119.86 102.01
  A 7.86 7.86 0.0 0 0 112.00 94.15
  A 7.86 7.86 0.0 0 0 104.14 102.01
  A 7.86 7.86 0.0 0 0 112.00 109.87
  A 7.86 7.86 0.0 0 0 119.86 102.01
  Z"
/>
<path fill="#000000" d="
  M 119.86 102.01
  A 7.86 7.86 0.0 0 1 112.00 109.87
  A 7.86 7.86 0.0 0 1 104.14 102.01
  A 7.86 7.86 0.0 0 1 112.00 94.15
  A 7.86 7.86 0.0 0 1 119.86 102.01
  Z
  M 115.91 101.99
  A 3.91 3.91 0.0 0 0 112.00 98.08
  A 3.91 3.91 0.0 0 0 108.09 101.99
  A 3.91 3.91 0.0 0 0 112.00 105.90
  A 3.91 3.91 0.0 0 0 115.91 101.99
  Z"
/>
<rect fill="#000000" x="66.00" y="98.00" width="26.00" height="4.00" rx="0.27"/>
<circle fill="#e0e7ea" cx="112.00" cy="101.99" r="3.91"/>
<path fill="#74b9ff" d="
  M 49.69 110.53
  L 52.42 113.36
  Q 52.81 113.76 52.25 113.77
  L 22.57 113.95
  A 0.54 0.51 -0.5 0 1 22.03 113.45
  L 22.01 110.62
  A 0.63 0.61 -0.0 0 1 22.64 110.01
  L 48.81 110.18
  A 1.29 1.12 -19.3 0 1 49.69 110.53
  Z"
/>
<path fill="#74b9ff" d="
  M 98.45 110.51
  L 100.71 113.55
  Q 101.05 114.00 100.46 114.00
  Q 87.28 114.00 75.35 114.00
  Q 73.20 114.00 71.92 113.04
  Q 70.60 112.05 69.70 110.62
  Q 69.41 110.17 69.93 110.17
  L 97.56 110.17
  A 1.21 0.73 -10.1 0 1 98.45 110.51
  Z"
/>
</svg>
