<?xml version="1.0" encoding="UTF-8" standalone="no"?>
<!DOCTYPE svg PUBLIC "-//W3C//DTD SVG 1.1//EN" "http://www.w3.org/Graphics/SVG/1.1/DTD/svg11.dtd">
<svg xmlns="http://www.w3.org/2000/svg" version="1.1" viewBox="0 0 128 128">
<g stroke-width="2.00" fill="none" stroke-linecap="butt">
<path stroke="#804137" vector-effect="non-scaling-stroke" d="
  M 117.92 8.01
  A 1.93 1.93 0.0 0 0 115.99 6.08
  A 1.93 1.93 0.0 0 0 114.06 8.01
  A 1.93 1.93 0.0 0 0 115.99 9.94
  A 1.93 1.93 0.0 0 0 117.92 8.01"
/>
<path stroke="#356b7a" vector-effect="non-scaling-stroke" d="
  M 80.02 9.43
  L 81.14 7.65
  Q 81.74 6.68 80.63 7.11
  Q 79.33 7.62 78.34 8.37
  Q 77.95 8.66 77.48 8.91
  Q 75.70 9.84 78.71 10.03
  A 1.50 1.24 15.0 0 0 80.02 9.43"
/>
<path stroke="#356b7a" vector-effect="non-scaling-stroke" d="
  M 94.55 8.95
  L 91.95 7.34
  Q 91.11 6.82 91.21 7.86
  Q 91.44 10.18 94.31 9.89
  Q 95.83 9.74 94.55 8.95"
/>
<path stroke="#356b7a" vector-effect="non-scaling-stroke" d="
  M 85.41 9.98
  Q 87.04 10.49 87.17 9.69
  Q 87.27 9.08 86.58 8.34
  Q 85.23 6.87 84.98 9.32
  A 0.63 0.61 12.6 0 0 85.41 9.98"
/>
<path stroke="#33373c" vector-effect="non-scaling-stroke" d="
  M 51.56 14.94
  Q 48.64 14.00 45.04 13.91
  Q 40.65 13.81 38.47 13.97
  Q 31.53 14.48 28.04 20.27
  Q 27.39 21.35 26.31 22.03
  Q 21.32 25.16 20.25 29.50
  Q 19.53 32.41 20.59 37.82
  A 0.71 0.66 86.8 0 0 21.18 38.39
  Q 22.41 38.51 23.51 37.94
  A 0.84 0.76 76.9 0 0 23.92 37.20
  Q 23.80 29.65 31.07 26.33
  A 1.71 1.71 71.2 0 0 32.03 24.38
  Q 31.35 21.44 35.26 22.27
  A 0.99 0.99 -82.6 0 1 36.05 23.30
  Q 35.71 29.30 40.67 31.74
  Q 41.99 32.38 41.40 31.04
  Q 39.53 26.80 40.11 22.68
  A 0.70 0.60 -86.8 0 1 40.68 22.08
  L 42.84 21.98
  A 1.36 1.20 -87.2 0 1 44.06 23.51
  Q 43.39 29.03 47.91 31.64
  Q 50.02 32.86 49.12 30.58
  Q 48.08 27.95 47.99 25.25
  Q 47.92 23.07 48.06 22.78
  Q 48.59 21.69 51.32 22.29
  A 0.93 0.93 -81.8 0 1 52.05 23.27
  Q 51.44 31.71 58.62 31.99
  A 1.56 1.56 -82.6 0 1 60.08 33.89
  Q 58.96 38.90 63.01 38.33
  A 0.63 0.60 89.0 0 0 63.54 37.76
  Q 64.08 31.10 63.75 29.25
  Q 61.79 18.23 51.56 14.94"
/>
<path stroke="#356b7a" vector-effect="non-scaling-stroke" d="
  M 78.17 17.08
  L 78.48 14.75
  A 0.65 0.59 12.8 0 0 78.02 14.09
  Q 72.80 12.45 72.29 17.26
  A 0.58 0.56 9.1 0 0 72.74 17.87
  Q 75.19 18.39 77.59 17.71
  A 0.82 0.73 -5.9 0 0 78.17 17.08"
/>
<path stroke="#356b7a" vector-effect="non-scaling-stroke" d="
  M 82.28 16.65
  Q 82.19 17.04 82.22 17.45
  A 0.61 0.57 -2.1 0 0 82.81 17.96
  L 88.25 18.00
  A 2.34 1.18 -87.7 0 0 89.50 15.75
  Q 89.61 13.47 87.22 13.76
  Q 85.50 13.97 83.75 14.00
  A 1.21 0.90 14.6 0 0 82.89 14.35
  Q 82.43 14.91 82.41 15.69
  Q 82.40 16.16 82.28 16.65"
/>
<path stroke="#356b7a" vector-effect="non-scaling-stroke" d="
  M 93.41 14.84
  Q 93.05 18.54 96.26 18.18
  Q 96.49 18.16 98.25 18.11
  Q 100.35 18.05 98.57 14.73
  A 1.38 1.37 75.8 0 0 97.36 14.00
  Q 95.33 14.00 93.64 14.00
  Q 93.47 14.00 93.37 14.06
  Q 93.18 14.18 93.26 14.35
  Q 93.42 14.70 93.41 14.84"
/>
<path stroke="#356b7a" vector-effect="non-scaling-stroke" d="
  M 74.17 25.91
  Q 74.93 26.05 75.71 26.04
  Q 75.96 26.04 77.29 26.10
  Q 79.06 26.18 78.44 24.45
  Q 78.28 24.01 78.34 23.51
  Q 78.52 21.95 77.19 21.93
  Q 75.88 21.90 75.81 21.90
  Q 70.16 21.15 73.38 25.42
  A 1.30 1.20 74.5 0 0 74.17 25.91"
/>
<path stroke="#356b7a" vector-effect="non-scaling-stroke" d="
  M 89.49 24.85
  Q 89.83 23.77 89.66 22.68
  A 0.63 0.60 85.6 0 0 89.06 22.14
  L 82.83 22.04
  A 0.64 0.61 85.7 0 0 82.22 22.78
  L 82.59 25.08
  A 0.85 0.81 5.0 0 0 83.16 25.73
  Q 86.07 26.66 88.85 25.52
  A 1.16 1.09 -3.1 0 0 89.49 24.85"
/>
<path stroke="#356b7a" vector-effect="non-scaling-stroke" d="
  M 93.80 22.92
  L 93.53 25.44
  A 0.53 0.48 2.9 0 0 94.06 25.97
  L 97.94 25.97
  A 0.93 0.88 -73.7 0 0 98.71 25.52
  Q 99.47 24.26 99.65 22.80
  A 0.58 0.58 9.8 0 0 99.21 22.18
  Q 96.79 21.57 94.41 22.28
  A 0.88 0.70 -8.0 0 0 93.80 22.92"
/>
<path stroke="#356b7a" vector-effect="non-scaling-stroke" d="
  M 84.64 32.75
  Q 86.18 33.37 87.04 30.56
  A 0.40 0.38 -82.2 0 0 86.67 30.05
  L 77.25 30.20
  Q 76.70 30.21 77.04 30.66
  Q 78.42 32.45 80.25 32.25
  Q 82.06 32.06 83.12 32.16
  Q 83.20 32.17 84.64 32.75"
/>
<path stroke="#356b7a" vector-effect="non-scaling-stroke" d="
  M 95.23 30.25
  Q 91.79 29.04 90.79 32.74
  Q 90.61 33.41 91.18 33.06
  L 95.28 30.56
  Q 95.59 30.37 95.23 30.25"
/>
<path stroke="#78685a" vector-effect="non-scaling-stroke" d="
  M 38.49 35.13
  Q 35.36 33.85 33.45 30.89
  A 1.29 1.29 -30.3 0 0 31.77 30.45
  Q 27.86 32.51 27.91 36.75
  Q 27.97 41.95 27.99 47.15
  Q 28.02 53.91 29.04 56.22
  Q 30.54 59.58 34.09 61.05
  Q 36.24 61.95 40.66 62.07
  Q 46.32 62.23 48.00 61.75
  Q 55.67 59.56 55.84 51.50
  Q 56.00 44.25 56.00 36.66
  A 0.66 0.66 -0.4 0 0 55.33 36.00
  Q 49.95 36.03 44.76 35.98
  Q 40.47 35.94 38.49 35.13"
/>
<path stroke="#78685a" vector-effect="non-scaling-stroke" d="
  M 82.49 36.17
  Q 81.24 35.95 80.53 36.77
  Q 80.06 37.31 80.02 38.50
  Q 79.94 40.84 80.04 43.18
  A 0.75 0.66 -84.4 0 0 80.53 43.86
  Q 81.64 44.15 83.50 43.82
  A 0.61 0.61 84.9 0 0 84.00 43.22
  L 84.00 37.98
  A 1.85 1.84 5.3 0 0 82.49 36.17"
/>
<path stroke="#804137" vector-effect="non-scaling-stroke" d="
  M 121.91 40.01
  A 1.92 1.92 0.0 0 0 119.99 38.09
  A 1.92 1.92 0.0 0 0 118.07 40.01
  A 1.92 1.92 0.0 0 0 119.99 41.93
  A 1.92 1.92 0.0 0 0 121.91 40.01"
/>
<path stroke="#78685a" vector-effect="non-scaling-stroke" d="
  M 20.94 43.69
  Q 18.56 47.57 22.82 49.83
  A 0.81 0.80 13.9 0 0 24.00 49.12
  L 24.00 42.66
  A 0.60 0.60 -5.5 0 0 23.28 42.07
  Q 21.75 42.37 20.94 43.69"
/>
<path stroke="#78685a" vector-effect="non-scaling-stroke" d="
  M 62.13 42.75
  Q 60.00 40.65 60.00 43.65
  L 60.00 49.27
  A 0.70 0.70 76.0 0 0 61.03 49.89
  Q 66.42 46.99 62.13 42.75"
/>
<path stroke="#78685a" vector-effect="non-scaling-stroke" d="
  M 81.89 57.32
  Q 80.88 67.39 71.75 72.09
  A 0.75 0.73 64.2 0 0 71.43 73.05
  L 74.31 79.53
  A 0.50 0.48 65.2 0 0 74.96 79.79
  Q 88.37 73.37 87.98 57.07
  A 1.10 1.09 -1.3 0 0 86.86 56.01
  Q 80.28 56.15 80.00 49.15
  Q 79.94 47.65 78.68 48.48
  Q 76.10 50.20 76.26 51.92
  Q 76.37 53.09 78.43 54.53
  Q 79.94 55.59 81.52 56.56
  A 0.81 0.79 -71.5 0 1 81.89 57.32"
/>
<path stroke="#78685a" vector-effect="non-scaling-stroke" d="
  M 90.56 48.19
  Q 89.01 47.53 84.68 48.12
  A 0.67 0.65 -0.7 0 0 84.11 48.69
  Q 83.71 52.59 89.59 51.78
  Q 91.44 51.53 92.16 49.82
  Q 92.50 49.01 90.56 48.19"
/>
<path stroke="#804137" vector-effect="non-scaling-stroke" d="
  M 117.90 60.01
  A 1.92 1.92 0.0 0 0 115.98 58.09
  A 1.92 1.92 0.0 0 0 114.06 60.01
  A 1.92 1.92 0.0 0 0 115.98 61.93
  A 1.92 1.92 0.0 0 0 117.90 60.01"
/>
<path stroke="#78685a" vector-effect="non-scaling-stroke" d="
  M 42.19 76.20
  L 47.21 70.16
  A 1.14 0.87 -37.4 0 0 47.46 69.24
  L 46.67 66.49
  A 0.80 0.60 -6.0 0 0 45.94 66.05
  L 37.82 66.05
  A 0.81 0.61 5.9 0 0 37.08 66.50
  L 36.34 69.19
  A 1.17 0.74 40.3 0 0 36.62 70.08
  L 41.50 76.17
  A 0.46 0.44 45.9 0 0 42.19 76.20"
/>
<path stroke="#2e6b5a" vector-effect="non-scaling-stroke" d="
  M 10.03 101.44
  L 10.03 98.56
  A 0.52 0.52 -0.5 0 1 10.55 98.04
  L 14.01 98.00
  A 0.66 0.63 -5.5 0 0 14.65 97.25
  Q 14.26 95.14 14.10 92.92
  Q 13.93 90.48 14.55 88.64
  Q 16.92 81.65 25.25 81.93
  Q 32.76 82.18 40.25 81.78
  Q 40.78 81.75 40.45 81.35
  L 33.08 72.36
  A 0.94 0.84 -21.7 0 0 32.26 72.06
  Q 13.50 74.53 7.71 90.96
  Q 5.43 97.42 6.19 101.71
  Q 7.35 108.26 15.30 110.01
  A 0.70 0.68 2.5 0 0 16.15 109.26
  L 15.16 102.68
  A 0.64 0.62 86.6 0 0 14.57 102.14
  L 10.57 101.93
  A 0.56 0.49 1.2 0 1 10.03 101.44"
/>
<path stroke="#2e6b5a" vector-effect="non-scaling-stroke" d="
  M 58.31 73.69
  Q 55.19 73.06 51.46 72.32
  A 1.18 1.15 -64.6 0 0 50.32 72.74
  L 43.51 81.18
  Q 42.85 82.00 43.89 82.00
  L 69.77 81.75
  A 0.66 0.61 -11.4 0 0 70.39 80.89
  L 67.44 74.23
  A 0.79 0.64 -12.8 0 0 66.69 73.86
  Q 61.41 74.32 58.31 73.69"
/>
<path stroke="#66696d" vector-effect="non-scaling-stroke" d="
  M 63.27 86.91
  Q 61.78 86.00 60.04 86.00
  Q 42.63 86.00 25.00 85.92
  Q 17.05 85.88 18.10 93.77
  Q 19.32 103.01 20.62 113.22
  A 0.90 0.89 -3.6 0 0 21.51 114.00
  L 62.69 113.94
  A 0.56 0.56 3.4 0 0 63.25 113.45
  Q 64.70 102.87 65.84 92.26
  Q 66.22 88.72 63.27 86.91"
/>
<path stroke="#55595f" vector-effect="non-scaling-stroke" d="
  M 23.84 121.08
  Q 25.22 122.00 26.87 122.00
  Q 41.25 122.00 56.25 122.16
  Q 59.70 122.19 62.04 119.27
  Q 63.07 118.00 61.43 118.00
  L 22.05 118.00
  A 0.51 0.51 -13.2 0 0 21.59 118.74
  Q 22.22 120.00 23.84 121.08"
/>
<path stroke="#78685a" vector-effect="non-scaling-stroke" d="
  M 51.88 39.98
  A 1.88 1.88 0.0 0 0 50.00 38.10
  A 1.88 1.88 0.0 0 0 48.12 39.98
  A 1.88 1.88 0.0 0 0 50.00 41.86
  A 1.88 1.88 0.0 0 0 51.88 39.98"
/>
<path stroke="#78685a" vector-effect="non-scaling-stroke" d="
  M 35.90 40.01
  A 1.89 1.89 0.0 0 0 34.01 38.12
  A 1.89 1.89 0.0 0 0 32.12 40.01
  A 1.89 1.89 0.0 0 0 34.01 41.90
  A 1.89 1.89 0.0 0 0 35.90 40.01"
/>
<path stroke="#78685a" vector-effect="non-scaling-stroke" d="
  M 36.03 55.68
  Q 40.01 58.64 44.23 57.62
  Q 47.91 56.73 50.01 53.76
  Q 52.05 50.88 51.99 46.58
  A 0.59 0.58 89.5 0 0 51.41 46.00
  L 32.55 46.00
  A 0.53 0.52 0.6 0 0 32.02 46.51
  Q 31.86 52.58 36.03 55.68"
/>
<path stroke="#804137" vector-effect="non-scaling-stroke" d="
  M 38.72 52.75
  Q 44.36 55.85 47.21 50.51
  A 0.32 0.31 13.7 0 0 46.93 50.05
  L 36.92 50.01
  Q 36.19 50.00 36.57 50.63
  Q 37.46 52.06 38.72 52.75"
/>
<path stroke="#66696d" vector-effect="non-scaling-stroke" d="
  M 47.93 95.99
  A 5.93 5.93 0.0 0 0 42.00 90.06
  A 5.93 5.93 0.0 0 0 36.07 95.99
  A 5.93 5.93 0.0 0 0 42.00 101.92
  A 5.93 5.93 0.0 0 0 47.93 95.99"
/>
<path stroke="#356b7a" vector-effect="non-scaling-stroke" d="
  M 43.1533 94.5263
  A 1.53 1.53 0.0 0 0 40.9927 94.4093
  L 40.5163 94.8367
  A 1.53 1.53 0.0 0 0 40.3993 96.9973
  L 40.8267 97.4737
  A 1.53 1.53 0.0 0 0 42.9873 97.5907
  L 43.4637 97.1633
  A 1.53 1.53 0.0 0 0 43.5807 95.0027
  L 43.1533 94.5263"
/>
</g>
<path fill="#000000" d="
  M 106.71 49.75
  L 112.61 54.44
  A 0.91 0.85 -35.1 0 0 113.47 54.56
  Q 116.57 53.41 119.02 54.89
  Q 121.25 56.23 121.80 58.97
  Q 122.42 62.03 120.11 64.20
  Q 118.43 65.78 116.42 65.95
  Q 114.18 66.15 112.21 64.53
  Q 109.48 62.27 110.25 58.74
  A 1.32 1.28 -64.6 0 0 109.81 57.44
  L 102.81 51.64
  A 2.33 2.25 -71.1 0 1 101.99 49.89
  L 101.95 43.56
  A 0.94 0.93 17.0 0 0 101.53 42.78
  L 96.97 39.76
  A 2.29 2.22 22.0 0 1 95.96 37.48
  Q 96.57 34.04 94.44 35.94
  Q 93.41 36.85 88.68 37.84
  A 0.70 0.60 -6.0 0 0 88.12 38.43
  L 88.06 43.22
  A 0.85 0.78 -1.1 0 0 88.95 44.01
  Q 91.45 43.90 93.23 45.03
  Q 95.08 46.20 95.66 48.36
  Q 96.66 52.09 92.57 55.54
  A 1.63 1.61 -21.3 0 0 91.98 56.87
  Q 92.72 72.78 80.24 81.46
  Q 74.97 85.13 69.03 85.76
  A 0.69 0.68 71.4 0 0 68.52 86.79
  Q 70.34 89.82 69.97 93.03
  Q 68.61 104.75 66.78 116.41
  Q 66.10 120.75 64.48 122.63
  Q 62.88 124.50 60.48 125.36
  Q 58.91 125.93 55.82 125.95
  Q 43.40 126.03 30.98 126.01
  Q 24.33 126.00 21.79 124.56
  Q 17.20 121.96 16.99 115.28
  A 1.32 1.31 2.5 0 0 15.82 114.01
  Q 6.73 112.97 3.54 106.07
  Q 1.30 101.23 2.57 94.23
  Q 3.70 87.98 7.06 82.81
  Q 15.25 70.21 30.58 68.31
  Q 32.00 68.13 32.52 67.42
  Q 33.08 66.65 33.00 65.56
  A 0.92 0.80 12.6 0 0 32.48 64.85
  Q 25.87 61.74 24.43 54.98
  A 1.19 1.19 -88.4 0 0 23.58 54.08
  Q 14.71 51.63 16.46 43.85
  Q 17.01 41.41 16.82 39.70
  Q 16.49 36.72 16.25 33.73
  Q 15.48 24.20 23.75 18.77
  Q 24.32 18.40 24.74 17.87
  Q 30.92 9.96 39.75 9.88
  Q 43.23 9.85 46.71 10.05
  Q 50.68 10.28 53.51 11.34
  Q 64.63 15.48 67.39 27.10
  Q 68.14 30.25 67.91 33.96
  Q 67.69 37.44 66.97 40.81
  Q 66.84 41.41 67.01 41.99
  Q 69.91 51.55 60.38 54.09
  A 0.92 0.92 1.1 0 0 59.73 54.71
  Q 57.54 62.11 51.27 64.87
  A 0.87 0.77 -12.5 0 0 50.76 65.57
  Q 50.72 66.68 51.29 67.56
  Q 51.76 68.27 52.91 68.55
  Q 58.68 69.93 62.00 70.00
  Q 73.90 70.27 77.48 60.01
  A 1.44 1.43 26.6 0 0 76.92 58.34
  Q 68.08 52.48 75.26 45.85
  A 3.05 2.26 75.4 0 0 76.06 43.87
  L 76.36 35.81
  A 1.04 0.77 -76.2 0 0 76.03 35.02
  Q 70.44 31.02 68.74 24.91
  Q 67.13 19.11 69.45 13.21
  Q 72.05 6.59 78.51 3.73
  Q 84.34 1.14 90.69 2.78
  Q 101.06 5.47 103.83 17.33
  A 0.73 0.58 82.2 0 0 104.43 17.90
  L 108.32 17.90
  A 1.00 0.65 -70.4 0 0 109.03 17.36
  L 111.31 13.14
  A 1.36 1.27 -48.6 0 0 111.27 11.78
  Q 108.83 8.13 111.19 4.44
  Q 112.45 2.46 114.87 2.10
  Q 116.87 1.80 118.84 2.87
  Q 122.75 5.02 121.65 9.44
  Q 121.09 11.67 119.36 12.84
  Q 117.75 13.94 115.68 14.15
  A 0.92 0.85 9.0 0 0 114.96 14.63
  L 111.81 20.95
  A 1.89 1.82 -76.3 0 1 110.16 22.00
  Q 107.63 22.00 106.03 21.77
  Q 103.45 21.41 103.47 23.76
  Q 103.47 24.23 103.27 24.70
  Q 102.44 26.55 105.25 26.00
  Q 107.39 25.58 114.75 26.21
  A 0.93 0.92 77.9 0 1 115.49 26.70
  L 119.08 33.50
  A 1.04 0.97 -8.4 0 0 119.82 34.01
  Q 126.97 35.12 125.56 41.42
  Q 125.05 43.69 123.40 44.86
  Q 121.41 46.28 119.10 45.85
  Q 116.02 45.28 114.65 42.59
  Q 113.20 39.75 115.29 36.26
  A 1.00 0.89 -44.8 0 0 115.35 35.35
  L 112.94 30.49
  A 0.90 0.80 -11.3 0 0 112.18 30.05
  Q 107.47 29.95 102.75 29.90
  Q 99.80 29.87 99.89 32.55
  Q 99.95 34.31 99.95 34.44
  Q 99.94 35.48 100.14 36.51
  A 1.26 1.21 -79.3 0 0 100.65 37.29
  L 104.89 40.18
  A 3.13 2.63 -76.4 0 1 106.07 42.55
  L 106.23 48.95
  A 1.24 0.81 25.8 0 0 106.71 49.75
  Z
  M 117.92 8.01
  A 1.93 1.93 0.0 0 0 115.99 6.08
  A 1.93 1.93 0.0 0 0 114.06 8.01
  A 1.93 1.93 0.0 0 0 115.99 9.94
  A 1.93 1.93 0.0 0 0 117.92 8.01
  Z
  M 80.02 9.43
  L 81.14 7.65
  Q 81.74 6.68 80.63 7.11
  Q 79.33 7.62 78.34 8.37
  Q 77.95 8.66 77.48 8.91
  Q 75.70 9.84 78.71 10.03
  A 1.50 1.24 15.0 0 0 80.02 9.43
  Z
  M 94.55 8.95
  L 91.95 7.34
  Q 91.11 6.82 91.21 7.86
  Q 91.44 10.18 94.31 9.89
  Q 95.83 9.74 94.55 8.95
  Z
  M 85.41 9.98
  Q 87.04 10.49 87.17 9.69
  Q 87.27 9.08 86.58 8.34
  Q 85.23 6.87 84.98 9.32
  A 0.63 0.61 12.6 0 0 85.41 9.98
  Z
  M 51.56 14.94
  Q 48.64 14.00 45.04 13.91
  Q 40.65 13.81 38.47 13.97
  Q 31.53 14.48 28.04 20.27
  Q 27.39 21.35 26.31 22.03
  Q 21.32 25.16 20.25 29.50
  Q 19.53 32.41 20.59 37.82
  A 0.71 0.66 86.8 0 0 21.18 38.39
  Q 22.41 38.51 23.51 37.94
  A 0.84 0.76 76.9 0 0 23.92 37.20
  Q 23.80 29.65 31.07 26.33
  A 1.71 1.71 71.2 0 0 32.03 24.38
  Q 31.35 21.44 35.26 22.27
  A 0.99 0.99 -82.6 0 1 36.05 23.30
  Q 35.71 29.30 40.67 31.74
  Q 41.99 32.38 41.40 31.04
  Q 39.53 26.80 40.11 22.68
  A 0.70 0.60 -86.8 0 1 40.68 22.08
  L 42.84 21.98
  A 1.36 1.20 -87.2 0 1 44.06 23.51
  Q 43.39 29.03 47.91 31.64
  Q 50.02 32.86 49.12 30.58
  Q 48.08 27.95 47.99 25.25
  Q 47.92 23.07 48.06 22.78
  Q 48.59 21.69 51.32 22.29
  A 0.93 0.93 -81.8 0 1 52.05 23.27
  Q 51.44 31.71 58.62 31.99
  A 1.56 1.56 -82.6 0 1 60.08 33.89
  Q 58.96 38.90 63.01 38.33
  A 0.63 0.60 89.0 0 0 63.54 37.76
  Q 64.08 31.10 63.75 29.25
  Q 61.79 18.23 51.56 14.94
  Z
  M 78.17 17.08
  L 78.48 14.75
  A 0.65 0.59 12.8 0 0 78.02 14.09
  Q 72.80 12.45 72.29 17.26
  A 0.58 0.56 9.1 0 0 72.74 17.87
  Q 75.19 18.39 77.59 17.71
  A 0.82 0.73 -5.9 0 0 78.17 17.08
  Z
  M 82.28 16.65
  Q 82.19 17.04 82.22 17.45
  A 0.61 0.57 -2.1 0 0 82.81 17.96
  L 88.25 18.00
  A 2.34 1.18 -87.7 0 0 89.50 15.75
  Q 89.61 13.47 87.22 13.76
  Q 85.50 13.97 83.75 14.00
  A 1.21 0.90 14.6 0 0 82.89 14.35
  Q 82.43 14.91 82.41 15.69
  Q 82.40 16.16 82.28 16.65
  Z
  M 93.41 14.84
  Q 93.05 18.54 96.26 18.18
  Q 96.49 18.16 98.25 18.11
  Q 100.35 18.05 98.57 14.73
  A 1.38 1.37 75.8 0 0 97.36 14.00
  Q 95.33 14.00 93.64 14.00
  Q 93.47 14.00 93.37 14.06
  Q 93.18 14.18 93.26 14.35
  Q 93.42 14.70 93.41 14.84
  Z
  M 74.17 25.91
  Q 74.93 26.05 75.71 26.04
  Q 75.96 26.04 77.29 26.10
  Q 79.06 26.18 78.44 24.45
  Q 78.28 24.01 78.34 23.51
  Q 78.52 21.95 77.19 21.93
  Q 75.88 21.90 75.81 21.90
  Q 70.16 21.15 73.38 25.42
  A 1.30 1.20 74.5 0 0 74.17 25.91
  Z
  M 89.49 24.85
  Q 89.83 23.77 89.66 22.68
  A 0.63 0.60 85.6 0 0 89.06 22.14
  L 82.83 22.04
  A 0.64 0.61 85.7 0 0 82.22 22.78
  L 82.59 25.08
  A 0.85 0.81 5.0 0 0 83.16 25.73
  Q 86.07 26.66 88.85 25.52
  A 1.16 1.09 -3.1 0 0 89.49 24.85
  Z
  M 93.80 22.92
  L 93.53 25.44
  A 0.53 0.48 2.9 0 0 94.06 25.97
  L 97.94 25.97
  A 0.93 0.88 -73.7 0 0 98.71 25.52
  Q 99.47 24.26 99.65 22.80
  A 0.58 0.58 9.8 0 0 99.21 22.18
  Q 96.79 21.57 94.41 22.28
  A 0.88 0.70 -8.0 0 0 93.80 22.92
  Z
  M 84.64 32.75
  Q 86.18 33.37 87.04 30.56
  A 0.40 0.38 -82.2 0 0 86.67 30.05
  L 77.25 30.20
  Q 76.70 30.21 77.04 30.66
  Q 78.42 32.45 80.25 32.25
  Q 82.06 32.06 83.12 32.16
  Q 83.20 32.17 84.64 32.75
  Z
  M 95.23 30.25
  Q 91.79 29.04 90.79 32.74
  Q 90.61 33.41 91.18 33.06
  L 95.28 30.56
  Q 95.59 30.37 95.23 30.25
  Z
  M 38.49 35.13
  Q 35.36 33.85 33.45 30.89
  A 1.29 1.29 -30.3 0 0 31.77 30.45
  Q 27.86 32.51 27.91 36.75
  Q 27.97 41.95 27.99 47.15
  Q 28.02 53.91 29.04 56.22
  Q 30.54 59.58 34.09 61.05
  Q 36.24 61.95 40.66 62.07
  Q 46.32 62.23 48.00 61.75
  Q 55.67 59.56 55.84 51.50
  Q 56.00 44.25 56.00 36.66
  A 0.66 0.66 -0.4 0 0 55.33 36.00
  Q 49.95 36.03 44.76 35.98
  Q 40.47 35.94 38.49 35.13
  Z
  M 82.49 36.17
  Q 81.24 35.95 80.53 36.77
  Q 80.06 37.31 80.02 38.50
  Q 79.94 40.84 80.04 43.18
  A 0.75 0.66 -84.4 0 0 80.53 43.86
  Q 81.64 44.15 83.50 43.82
  A 0.61 0.61 84.9 0 0 84.00 43.22
  L 84.00 37.98
  A 1.85 1.84 5.3 0 0 82.49 36.17
  Z
  M 121.91 40.01
  A 1.92 1.92 0.0 0 0 119.99 38.09
  A 1.92 1.92 0.0 0 0 118.07 40.01
  A 1.92 1.92 0.0 0 0 119.99 41.93
  A 1.92 1.92 0.0 0 0 121.91 40.01
  Z
  M 20.94 43.69
  Q 18.56 47.57 22.82 49.83
  A 0.81 0.80 13.9 0 0 24.00 49.12
  L 24.00 42.66
  A 0.60 0.60 -5.5 0 0 23.28 42.07
  Q 21.75 42.37 20.94 43.69
  Z
  M 62.13 42.75
  Q 60.00 40.65 60.00 43.65
  L 60.00 49.27
  A 0.70 0.70 76.0 0 0 61.03 49.89
  Q 66.42 46.99 62.13 42.75
  Z
  M 81.89 57.32
  Q 80.88 67.39 71.75 72.09
  A 0.75 0.73 64.2 0 0 71.43 73.05
  L 74.31 79.53
  A 0.50 0.48 65.2 0 0 74.96 79.79
  Q 88.37 73.37 87.98 57.07
  A 1.10 1.09 -1.3 0 0 86.86 56.01
  Q 80.28 56.15 80.00 49.15
  Q 79.94 47.65 78.68 48.48
  Q 76.10 50.20 76.26 51.92
  Q 76.37 53.09 78.43 54.53
  Q 79.94 55.59 81.52 56.56
  A 0.81 0.79 -71.5 0 1 81.89 57.32
  Z
  M 90.56 48.19
  Q 89.01 47.53 84.68 48.12
  A 0.67 0.65 -0.7 0 0 84.11 48.69
  Q 83.71 52.59 89.59 51.78
  Q 91.44 51.53 92.16 49.82
  Q 92.50 49.01 90.56 48.19
  Z
  M 117.90 60.01
  A 1.92 1.92 0.0 0 0 115.98 58.09
  A 1.92 1.92 0.0 0 0 114.06 60.01
  A 1.92 1.92 0.0 0 0 115.98 61.93
  A 1.92 1.92 0.0 0 0 117.90 60.01
  Z
  M 42.19 76.20
  L 47.21 70.16
  A 1.14 0.87 -37.4 0 0 47.46 69.24
  L 46.67 66.49
  A 0.80 0.60 -6.0 0 0 45.94 66.05
  L 37.82 66.05
  A 0.81 0.61 5.9 0 0 37.08 66.50
  L 36.34 69.19
  A 1.17 0.74 40.3 0 0 36.62 70.08
  L 41.50 76.17
  A 0.46 0.44 45.9 0 0 42.19 76.20
  Z
  M 10.03 101.44
  L 10.03 98.56
  A 0.52 0.52 -0.5 0 1 10.55 98.04
  L 14.01 98.00
  A 0.66 0.63 -5.5 0 0 14.65 97.25
  Q 14.26 95.14 14.10 92.92
  Q 13.93 90.48 14.55 88.64
  Q 16.92 81.65 25.25 81.93
  Q 32.76 82.18 40.25 81.78
  Q 40.78 81.75 40.45 81.35
  L 33.08 72.36
  A 0.94 0.84 -21.7 0 0 32.26 72.06
  Q 13.50 74.53 7.71 90.96
  Q 5.43 97.42 6.19 101.71
  Q 7.35 108.26 15.30 110.01
  A 0.70 0.68 2.5 0 0 16.15 109.26
  L 15.16 102.68
  A 0.64 0.62 86.6 0 0 14.57 102.14
  L 10.57 101.93
  A 0.56 0.49 1.2 0 1 10.03 101.44
  Z
  M 58.31 73.69
  Q 55.19 73.06 51.46 72.32
  A 1.18 1.15 -64.6 0 0 50.32 72.74
  L 43.51 81.18
  Q 42.85 82.00 43.89 82.00
  L 69.77 81.75
  A 0.66 0.61 -11.4 0 0 70.39 80.89
  L 67.44 74.23
  A 0.79 0.64 -12.8 0 0 66.69 73.86
  Q 61.41 74.32 58.31 73.69
  Z
  M 63.27 86.91
  Q 61.78 86.00 60.04 86.00
  Q 42.63 86.00 25.00 85.92
  Q 17.05 85.88 18.10 93.77
  Q 19.32 103.01 20.62 113.22
  A 0.90 0.89 -3.6 0 0 21.51 114.00
  L 62.69 113.94
  A 0.56 0.56 3.4 0 0 63.25 113.45
  Q 64.70 102.87 65.84 92.26
  Q 66.22 88.72 63.27 86.91
  Z
  M 23.84 121.08
  Q 25.22 122.00 26.87 122.00
  Q 41.25 122.00 56.25 122.16
  Q 59.70 122.19 62.04 119.27
  Q 63.07 118.00 61.43 118.00
  L 22.05 118.00
  A 0.51 0.51 -13.2 0 0 21.59 118.74
  Q 22.22 120.00 23.84 121.08
  Z"
/>
<circle fill="#ff826e" cx="115.99" cy="8.01" r="1.93"/>
<path fill="#69d6f4" d="
  M 80.02 9.43
  A 1.50 1.24 15.0 0 1 78.71 10.03
  Q 75.70 9.84 77.48 8.91
  Q 77.95 8.66 78.34 8.37
  Q 79.33 7.62 80.63 7.11
  Q 81.74 6.68 81.14 7.65
  L 80.02 9.43
  Z"
/>
<path fill="#69d6f4" d="
  M 94.55 8.95
  Q 95.83 9.74 94.31 9.89
  Q 91.44 10.18 91.21 7.86
  Q 91.11 6.82 91.95 7.34
  L 94.55 8.95
  Z"
/>
<path fill="#69d6f4" d="
  M 84.98 9.32
  Q 85.23 6.87 86.58 8.34
  Q 87.27 9.08 87.17 9.69
  Q 87.04 10.49 85.41 9.98
  A 0.63 0.61 12.6 0 1 84.98 9.32
  Z"
/>
<path fill="#656d78" d="
  M 51.56 14.94
  Q 61.79 18.23 63.75 29.25
  Q 64.08 31.10 63.54 37.76
  A 0.63 0.60 89.0 0 1 63.01 38.33
  Q 58.96 38.90 60.08 33.89
  A 1.56 1.56 -82.6 0 0 58.62 31.99
  Q 51.44 31.71 52.05 23.27
  A 0.93 0.93 -81.8 0 0 51.32 22.29
  Q 48.59 21.69 48.06 22.78
  Q 47.92 23.07 47.99 25.25
  Q 48.08 27.95 49.12 30.58
  Q 50.02 32.86 47.91 31.64
  Q 43.39 29.03 44.06 23.51
  A 1.36 1.20 -87.2 0 0 42.84 21.98
  L 40.68 22.08
  A 0.70 0.60 -86.8 0 0 40.11 22.68
  Q 39.53 26.80 41.40 31.04
  Q 41.99 32.38 40.67 31.74
  Q 35.71 29.30 36.05 23.30
  A 0.99 0.99 -82.6 0 0 35.26 22.27
  Q 31.35 21.44 32.03 24.38
  A 1.71 1.71 71.2 0 1 31.07 26.33
  Q 23.80 29.65 23.92 37.20
  A 0.84 0.76 76.9 0 1 23.51 37.94
  Q 22.41 38.51 21.18 38.39
  A 0.71 0.66 86.8 0 1 20.59 37.82
  Q 19.53 32.41 20.25 29.50
  Q 21.32 25.16 26.31 22.03
  Q 27.39 21.35 28.04 20.27
  Q 31.53 14.48 38.47 13.97
  Q 40.65 13.81 45.04 13.91
  Q 48.64 14.00 51.56 14.94
  Z"
/>
<path fill="#69d6f4" d="
  M 77.59 17.71
  Q 75.19 18.39 72.74 17.87
  A 0.58 0.56 9.1 0 1 72.29 17.26
  Q 72.80 12.45 78.02 14.09
  A 0.65 0.59 12.8 0 1 78.48 14.75
  L 78.17 17.08
  A 0.82 0.73 -5.9 0 1 77.59 17.71
  Z"
/>
<path fill="#69d6f4" d="
  M 82.41 15.69
  Q 82.43 14.91 82.89 14.35
  A 1.21 0.90 14.6 0 1 83.75 14.00
  Q 85.50 13.97 87.22 13.76
  Q 89.61 13.47 89.50 15.75
  A 2.34 1.18 -87.7 0 1 88.25 18.00
  L 82.81 17.96
  A 0.61 0.57 -2.1 0 1 82.22 17.45
  Q 82.19 17.04 82.28 16.65
  Q 82.40 16.16 82.41 15.69
  Z"
/>
<path fill="#69d6f4" d="
  M 93.26 14.35
  Q 93.18 14.18 93.37 14.06
  Q 93.47 14.00 93.64 14.00
  Q 95.33 14.00 97.36 14.00
  A 1.38 1.37 75.8 0 1 98.57 14.73
  Q 100.35 18.05 98.25 18.11
  Q 96.49 18.16 96.26 18.18
  Q 93.05 18.54 93.41 14.84
  Q 93.42 14.70 93.26 14.35
  Z"
/>
<path fill="#69d6f4" d="
  M 73.38 25.42
  Q 70.16 21.15 75.81 21.90
  Q 75.88 21.90 77.19 21.93
  Q 78.52 21.95 78.34 23.51
  Q 78.28 24.01 78.44 24.45
  Q 79.06 26.18 77.29 26.10
  Q 75.96 26.04 75.71 26.04
  Q 74.93 26.05 74.17 25.91
  A 1.30 1.20 74.5 0 1 73.38 25.42
  Z"
/>
<path fill="#69d6f4" d="
  M 88.85 25.52
  Q 86.07 26.66 83.16 25.73
  A 0.85 0.81 5.0 0 1 82.59 25.08
  L 82.22 22.78
  A 0.64 0.61 85.7 0 1 82.83 22.04
  L 89.06 22.14
  A 0.63 0.60 85.6 0 1 89.66 22.68
  Q 89.83 23.77 89.49 24.85
  A 1.16 1.09 -3.1 0 1 88.85 25.52
  Z"
/>
<path fill="#69d6f4" d="
  M 94.41 22.28
  Q 96.79 21.57 99.21 22.18
  A 0.58 0.58 9.8 0 1 99.65 22.80
  Q 99.47 24.26 98.71 25.52
  A 0.93 0.88 -73.7 0 1 97.94 25.97
  L 94.06 25.97
  A 0.53 0.48 2.9 0 1 93.53 25.44
  L 93.80 22.92
  A 0.88 0.70 -8.0 0 1 94.41 22.28
  Z"
/>
<path fill="#69d6f4" d="
  M 83.12 32.16
  Q 82.06 32.06 80.25 32.25
  Q 78.42 32.45 77.04 30.66
  Q 76.70 30.21 77.25 30.20
  L 86.67 30.05
  A 0.40 0.38 -82.2 0 1 87.04 30.56
  Q 86.18 33.37 84.64 32.75
  Q 83.20 32.17 83.12 32.16
  Z"
/>
<path fill="#69d6f4" d="
  M 95.23 30.25
  Q 95.59 30.37 95.28 30.56
  L 91.18 33.06
  Q 90.61 33.41 90.79 32.74
  Q 91.79 29.04 95.23 30.25
  Z"
/>
<path fill="#f0d0b4" d="
  M 44.76 35.98
  Q 49.95 36.03 55.33 36.00
  A 0.66 0.66 -0.4 0 1 56.00 36.66
  Q 56.00 44.25 55.84 51.50
  Q 55.67 59.56 48.00 61.75
  Q 46.32 62.23 40.66 62.07
  Q 36.24 61.95 34.09 61.05
  Q 30.54 59.58 29.04 56.22
  Q 28.02 53.91 27.99 47.15
  Q 27.97 41.95 27.91 36.75
  Q 27.86 32.51 31.77 30.45
  A 1.29 1.29 -30.3 0 1 33.45 30.89
  Q 35.36 33.85 38.49 35.13
  Q 40.47 35.94 44.76 35.98
  Z
  M 51.88 39.98
  A 1.88 1.88 0.0 0 0 50.00 38.10
  A 1.88 1.88 0.0 0 0 48.12 39.98
  A 1.88 1.88 0.0 0 0 50.00 41.86
  A 1.88 1.88 0.0 0 0 51.88 39.98
  Z
  M 35.90 40.01
  A 1.89 1.89 0.0 0 0 34.01 38.12
  A 1.89 1.89 0.0 0 0 32.12 40.01
  A 1.89 1.89 0.0 0 0 34.01 41.90
  A 1.89 1.89 0.0 0 0 35.90 40.01
  Z
  M 36.03 55.68
  Q 40.01 58.64 44.23 57.62
  Q 47.91 56.73 50.01 53.76
  Q 52.05 50.88 51.99 46.58
  A 0.59 0.58 89.5 0 0 51.41 46.00
  L 32.55 46.00
  A 0.53 0.52 0.6 0 0 32.02 46.51
  Q 31.86 52.58 36.03 55.68
  Z"
/>
<path fill="#f0d0b4" d="
  M 82.49 36.17
  A 1.85 1.84 5.3 0 1 84.00 37.98
  L 84.00 43.22
  A 0.61 0.61 84.9 0 1 83.50 43.82
  Q 81.64 44.15 80.53 43.86
  A 0.75 0.66 -84.4 0 1 80.04 43.18
  Q 79.94 40.84 80.02 38.50
  Q 80.06 37.31 80.53 36.77
  Q 81.24 35.95 82.49 36.17
  Z"
/>
<circle fill="#000000" cx="50.00" cy="39.98" r="1.88"/>
<circle fill="#ff826e" cx="119.99" cy="40.01" r="1.92"/>
<circle fill="#000000" cx="34.01" cy="40.01" r="1.89"/>
<path fill="#f0d0b4" d="
  M 20.94 43.69
  Q 21.75 42.37 23.28 42.07
  A 0.60 0.60 -5.5 0 1 24.00 42.66
  L 24.00 49.12
  A 0.81 0.80 13.9 0 1 22.82 49.83
  Q 18.56 47.57 20.94 43.69
  Z"
/>
<path fill="#f0d0b4" d="
  M 62.13 42.75
  Q 66.42 46.99 61.03 49.89
  A 0.70 0.70 76.0 0 1 60.00 49.27
  L 60.00 43.65
  Q 60.00 40.65 62.13 42.75
  Z"
/>
<path fill="#000000" d="
  M 36.03 55.68
  Q 31.86 52.58 32.02 46.51
  A 0.53 0.52 0.6 0 1 32.55 46.00
  L 51.41 46.00
  A 0.59 0.58 89.5 0 1 51.99 46.58
  Q 52.05 50.88 50.01 53.76
  Q 47.91 56.73 44.23 57.62
  Q 40.01 58.64 36.03 55.68
  Z
  M 38.72 52.75
  Q 44.36 55.85 47.21 50.51
  A 0.32 0.31 13.7 0 0 46.93 50.05
  L 36.92 50.01
  Q 36.19 50.00 36.57 50.63
  Q 37.46 52.06 38.72 52.75
  Z"
/>
<path fill="#f0d0b4" d="
  M 81.52 56.56
  Q 79.94 55.59 78.43 54.53
  Q 76.37 53.09 76.26 51.92
  Q 76.10 50.20 78.68 48.48
  Q 79.94 47.65 80.00 49.15
  Q 80.28 56.15 86.86 56.01
  A 1.10 1.09 -1.3 0 1 87.98 57.07
  Q 88.37 73.37 74.96 79.79
  A 0.50 0.48 65.2 0 1 74.31 79.53
  L 71.43 73.05
  A 0.75 0.73 64.2 0 1 71.75 72.09
  Q 80.88 67.39 81.89 57.32
  A 0.81 0.79 -71.5 0 0 81.52 56.56
  Z"
/>
<path fill="#f0d0b4" d="
  M 90.56 48.19
  Q 92.50 49.01 92.16 49.82
  Q 91.44 51.53 89.59 51.78
  Q 83.71 52.59 84.11 48.69
  A 0.67 0.65 -0.7 0 1 84.68 48.12
  Q 89.01 47.53 90.56 48.19
  Z"
/>
<path fill="#ff826e" d="
  M 38.72 52.75
  Q 37.46 52.06 36.57 50.63
  Q 36.19 50.00 36.92 50.01
  L 46.93 50.05
  A 0.32 0.31 13.7 0 1 47.21 50.51
  Q 44.36 55.85 38.72 52.75
  Z"
/>
<circle fill="#ff826e" cx="115.98" cy="60.01" r="1.92"/>
<path fill="#f0d0b4" d="
  M 42.19 76.20
  A 0.46 0.44 45.9 0 1 41.50 76.17
  L 36.62 70.08
  A 1.17 0.74 40.3 0 1 36.34 69.19
  L 37.08 66.50
  A 0.81 0.61 5.9 0 1 37.82 66.05
  L 45.94 66.05
  A 0.80 0.60 -6.0 0 1 46.67 66.49
  L 47.46 69.24
  A 1.14 0.87 -37.4 0 1 47.21 70.16
  L 42.19 76.20
  Z"
/>
<path fill="#5cd6b3" d="
  M 10.57 101.93
  L 14.57 102.14
  A 0.64 0.62 86.6 0 1 15.16 102.68
  L 16.15 109.26
  A 0.70 0.68 2.5 0 1 15.30 110.01
  Q 7.35 108.26 6.19 101.71
  Q 5.43 97.42 7.71 90.96
  Q 13.50 74.53 32.26 72.06
  A 0.94 0.84 -21.7 0 1 33.08 72.36
  L 40.45 81.35
  Q 40.78 81.75 40.25 81.78
  Q 32.76 82.18 25.25 81.93
  Q 16.92 81.65 14.55 88.64
  Q 13.93 90.48 14.10 92.92
  Q 14.26 95.14 14.65 97.25
  A 0.66 0.63 -5.5 0 1 14.01 98.00
  L 10.55 98.04
  A 0.52 0.52 -0.5 0 0 10.03 98.56
  L 10.03 101.44
  A 0.56 0.49 1.2 0 0 10.57 101.93
  Z"
/>
<path fill="#5cd6b3" d="
  M 58.31 73.69
  Q 61.41 74.32 66.69 73.86
  A 0.79 0.64 -12.8 0 1 67.44 74.23
  L 70.39 80.89
  A 0.66 0.61 -11.4 0 1 69.77 81.75
  L 43.89 82.00
  Q 42.85 82.00 43.51 81.18
  L 50.32 72.74
  A 1.18 1.15 -64.6 0 1 51.46 72.32
  Q 55.19 73.06 58.31 73.69
  Z"
/>
<path fill="#ccd1d9" d="
  M 63.27 86.91
  Q 66.22 88.72 65.84 92.26
  Q 64.70 102.87 63.25 113.45
  A 0.56 0.56 3.4 0 1 62.69 113.94
  L 21.51 114.00
  A 0.90 0.89 -3.6 0 1 20.62 113.22
  Q 19.32 103.01 18.10 93.77
  Q 17.05 85.88 25.00 85.92
  Q 42.63 86.00 60.04 86.00
  Q 61.78 86.00 63.27 86.91
  Z
  M 47.93 95.99
  A 5.93 5.93 0.0 0 0 42.00 90.06
  A 5.93 5.93 0.0 0 0 36.07 95.99
  A 5.93 5.93 0.0 0 0 42.00 101.92
  A 5.93 5.93 0.0 0 0 47.93 95.99
  Z"
/>
<path fill="#000000" d="
  M 47.93 95.99
  A 5.93 5.93 0.0 0 1 42.00 101.92
  A 5.93 5.93 0.0 0 1 36.07 95.99
  A 5.93 5.93 0.0 0 1 42.00 90.06
  A 5.93 5.93 0.0 0 1 47.93 95.99
  Z
  M 43.1533 94.5263
  A 1.53 1.53 0.0 0 0 40.9927 94.4093
  L 40.5163 94.8367
  A 1.53 1.53 0.0 0 0 40.3993 96.9973
  L 40.8267 97.4737
  A 1.53 1.53 0.0 0 0 42.9873 97.5907
  L 43.4637 97.1633
  A 1.53 1.53 0.0 0 0 43.5807 95.0027
  L 43.1533 94.5263
  Z"
/>
<rect fill="#69d6f4" x="-1.85" y="-1.85" transform="translate(41.99,96.00) rotate(-41.9)" width="3.70" height="3.70" rx="1.53"/>
<path fill="#aab2bd" d="
  M 23.84 121.08
  Q 22.22 120.00 21.59 118.74
  A 0.51 0.51 -13.2 0 1 22.05 118.00
  L 61.43 118.00
  Q 63.07 118.00 62.04 119.27
  Q 59.70 122.19 56.25 122.16
  Q 41.25 122.00 26.87 122.00
  Q 25.22 122.00 23.84 121.08
  Z"
/>
</svg>
